<?xml version="1.0"?>
<svg id="Layer_2" data-name="Layer 2" xmlns="http://www.w3.org/2000/svg" xmlns:xlink="http://www.w3.org/1999/xlink" viewBox="0 0 456.56 327.52">
  <defs>
    
    <clipPath id="clippath">
      <path class="cls-1" d="M19.64,252.74c6.09-3.35,12.77-6.19,17.18-11.57,2.32-2.83,3.87-6.22,6.23-9.01s5.97-5,9.53-4.21c3.91.86,6.17,4.81,8.36,8.16,9.32,14.24,27.94,23.49,44.96,23.82h0c2.74-3.52,5.99-6.51,10.07-8.38,5.8-2.66,12.62-2.68,18.15-5.85,6.49-3.72,10.83-11.53,18.23-12.55,5.11-.7,9.97,2.15,14.34,4.9,1.17.73,2.33,1.47,3.5,2.2l.2-.48c23.08-13.22,46.15-26.44,69.23-39.66,4-2.29,8.15-4.63,12.74-5.12,11.22-1.19,20.13,8.59,28.06,16.62,15.38,15.58,35.92,28.5,56.6,35.69l.24.39c4.44-3.05,9.35-6.25,14.34-4.69,2.69.84,4.89,3,7.68,3.45,5.63.9,9.61-5.23,14.7-7.8,5.57-2.81,10.52,1.26,17.26,5.02h0c.52-.07,1.04-.11,1.57-.1,4.27.04,7.98,2.8,11.29,5.51,7.03,5.75,13.77,11.86,20.18,18.29,0,0,9.48,23.28,16.59,34.23V0H5.77v267.48c1.64-6.76,7.78-11.39,13.88-14.75Z"></path>
    </clipPath>
  </defs>
  <g id="Layer_1-2" data-name="Layer 1">
    <g>
      <g class="cls-5">
        <g>
          <path class="cls-4" d="M333.65,324c-16.04-25.94-14.82-54,3.83-88.29.39-.72,1.1-1.92,2.01-3.45,6.21-10.49,20.76-35.05,17.17-45.39-.68-1.95-1.98-3.31-3.87-4.03-5.46-2.1-16.87,7.35-18.74,9.18-14.78,14.43-24.45,34.85-32.98,52.87-8.47,17.89-6.52,70.01-2.31,89.27,1.39,6.37,3.48,12.64,5.49,18.7,1.43,4.32,2.89,8.71,4.11,13.18h.62c-1.24-4.54-2.71-9-4.16-13.37-2.01-6.05-4.09-12.3-5.47-18.64-4.19-19.2-6.16-71.11,2.27-88.89,8.51-17.97,18.15-38.34,32.86-52.69,2.59-2.53,13.29-10.9,18.11-9.05,1.72.66,2.9,1.9,3.52,3.67,3.5,10.08-11.48,35.38-17.12,44.9-.91,1.53-1.62,2.74-2.02,3.46-18.77,34.5-19.98,62.75-3.82,88.89,8.64,13.98,22.16,23,35.23,31.72,4.8,3.2,9.72,6.49,14.39,10.01h.98c-4.87-3.72-10.02-7.16-15.04-10.51-13.02-8.69-26.48-17.67-35.05-31.53Z"></path>
          <path class="cls-4" d="M366.28,339.84c-10.59-6.47-20.58-12.59-26.94-23.37-18.96-32.13-4.28-58.48,11.26-86.37,6.55-11.76,13.33-23.92,17.26-36.46,2.27-7.24,1.02-14.17-3.35-18.55-4.1-4.1-10.28-5.25-16.97-3.15-16.83,5.27-26.69,21.05-35.39,34.98-.71,1.13-1.41,2.26-2.11,3.36-1.81,2.86-3.77,5.74-5.84,8.79-6.64,9.75-13.5,19.82-16.15,30.48-1.27,5.13-1.14,10.52-1,15.74.07,2.87.15,5.83-.02,8.69-2.01,34.95,3.81,59.31,8.94,80.81.92,3.84,1.8,7.57,2.62,11.24h.61c-.83-3.71-1.73-7.48-2.65-11.37-5.12-21.45-10.93-45.77-8.92-80.64.17-2.88.09-5.86.02-8.74-.13-5.18-.27-10.54.99-15.59,2.62-10.56,9.46-20.59,16.06-30.29,2.08-3.06,4.05-5.94,5.86-8.81.7-1.11,1.4-2.23,2.11-3.37,8.65-13.84,18.45-29.52,35.07-34.73,6.47-2.03,12.44-.93,16.37,3.01,4.21,4.22,5.41,10.92,3.21,17.95-3.92,12.49-10.68,24.62-17.22,36.35-7.48,13.43-15.22,27.32-18.52,41.57-3.7,15.98-1.32,30.83,7.26,45.39,6.43,10.9,16.96,17.34,27.14,23.57,4.46,2.73,9.08,5.55,13.35,8.73,7.47,5.57,13.82,11.17,20.08,16.95h.87c-6.43-5.95-12.92-11.71-20.6-17.43-4.29-3.2-8.92-6.03-13.39-8.77Z"></path>
          <path class="cls-4" d="M350.38,355.03c-21.07-17.02-32.27-36.61-35.23-61.65-2.76-23.33,1.22-41.01,14.18-63.06,2.15-3.65,4.59-7.21,6.95-10.66,2.59-3.78,5.28-7.7,7.58-11.74,1.13-1.98,2.68-5.79,1.34-7.51-.68-.87-1.96-1.05-3.82-.53-6.43,1.79-14.01,16.14-19.55,26.61-1.73,3.28-3.23,6.11-4.38,7.96-7.32,11.75-11.19,21.92-11.82,31.08-.51,7.46-1.14,15.38-1.98,24.93-1.11,12.66-2.25,25.76.52,39.73,1.35,6.82,3.75,13.47,6.07,19.9,1.78,4.94,3.62,10.04,4.97,15.18.07.25.13.51.19.77h.61c-.08-.31-.15-.62-.23-.92-1.36-5.16-3.2-10.28-4.99-15.23-2.31-6.41-4.7-13.04-6.05-19.82-2.76-13.89-1.61-26.94-.51-39.56.84-9.56,1.47-17.48,1.98-24.94.63-9.06,4.46-19.13,11.73-30.8,1.16-1.87,2.66-4.71,4.4-8,5.17-9.79,12.99-24.6,19.18-26.32.64-.18,1.2-.27,1.67-.27.7,0,1.21.2,1.52.6,1.07,1.37-.25,4.85-1.39,6.85-2.29,4.02-4.96,7.92-7.55,11.69-2.37,3.45-4.82,7.02-6.97,10.69-13.04,22.17-17.04,39.96-14.26,63.43,2.98,25.2,14.24,44.92,35.45,62.04,3.75,3.03,7.96,5.48,12.03,7.85,1.51.88,3.05,1.77,4.57,2.7h1.13c-1.79-1.12-3.61-2.18-5.39-3.22-4.05-2.36-8.24-4.79-11.95-7.8Z"></path>
          <path class="cls-4" d="M396.73,346.32c-5.54-3.86-11.03-6.94-16.34-9.93-10.24-5.76-19.91-11.2-28.54-21.28-25.84-30.17-8.11-59.28,9.02-87.43,6.74-11.08,13.11-21.54,16.65-31.8,2.68-7.77,2.96-20.22-2.75-29.22-3.71-5.85-9.27-9.21-16.51-10-21-2.26-37.04,22.56-47.66,39-1.36,2.11-2.65,4.1-3.85,5.89-3.67,5.46-8.7,10.47-13.56,15.32-8.19,8.17-16.67,16.61-19.38,27.75-2.62,10.77-.3,21.78,1.95,32.43.86,4.08,1.75,8.29,2.32,12.37.73,5.16.78,10.46.83,15.58.06,5.67.12,11.52,1.08,17.25,1.92,11.41,4.28,20.44,6.56,29.16,1.32,5.04,2.56,9.81,3.62,14.63h.59c-1.07-4.95-2.33-9.78-3.64-14.78-2.28-8.71-4.64-17.72-6.55-29.11-.96-5.68-1.01-11.52-1.07-17.16-.05-5.14-.1-10.46-.84-15.66-.58-4.1-1.47-8.32-2.33-12.41-2.23-10.58-4.54-21.52-1.95-32.16,2.67-10.98,11.08-19.36,19.22-27.47,4.88-4.87,9.93-9.9,13.64-15.41,1.2-1.79,2.49-3.79,3.86-5.9,10.54-16.31,26.48-40.95,47.1-38.73,7.05.76,12.46,4.04,16.08,9.73,5.6,8.83,5.32,21.07,2.69,28.71-3.51,10.2-9.87,20.63-16.6,31.68-8.46,13.9-17.21,28.28-20.61,43.01-3.85,16.71-.04,31.47,11.64,45.12,8.7,10.16,18.41,15.62,28.7,21.41,5.3,2.98,10.77,6.06,16.29,9.9,7.91,5.5,14.47,12.35,20.68,19.23h.8c-6.33-7.05-13.02-14.07-21.14-19.72Z"></path>
          <path class="cls-4" d="M403.29,337.63c-6.89-4.47-12.25-6.32-17.43-8.11-9.21-3.18-17.17-5.93-30.24-23.19-19.51-25.75-3.61-51.52,11.78-76.44,7.73-12.52,15.71-25.46,18.98-38.14,3.2-12.4-.02-25.89-8.4-35.19-7.69-8.54-18.69-12.45-30.16-10.74-15.05,2.24-27.95,22.5-39.33,40.37-2.81,4.4-5.46,8.56-8.01,12.25-3.71,5.35-10.47,11.4-17.01,17.25-8.89,7.95-18.09,16.17-20.46,23.24-3.14,9.33-1.71,20.94-.46,31.18.42,3.46.82,6.73,1.06,9.82.49,6.65.53,13.48.56,20.08.06,11.52.12,23.44,2.63,34.9,1.67,7.61,4.11,15.24,6.47,22.62.9,2.81,1.81,5.65,2.68,8.5h.62c-.89-2.91-1.81-5.81-2.73-8.68-2.36-7.36-4.8-14.98-6.46-22.56-2.5-11.4-2.55-23.28-2.61-34.78-.03-6.61-.07-13.45-.56-20.12-.23-3.11-.63-6.39-1.06-9.85-1.25-10.18-2.66-21.72.43-30.92,2.33-6.92,11.46-15.09,20.3-22.99,6.57-5.87,13.36-11.95,17.11-17.35,2.57-3.7,5.22-7.87,8.03-12.27,11.32-17.76,24.14-37.9,38.92-40.1,11.27-1.68,22.08,2.17,29.63,10.55,8.25,9.15,11.41,22.43,8.27,34.64-3.24,12.59-11.21,25.49-18.91,37.97-15.49,25.09-31.5,51.03-11.74,77.11,13.18,17.4,21.22,20.17,30.52,23.39,5.14,1.78,10.46,3.61,17.3,8.05,5.7,3.7,11.17,10.27,17.52,17.88,2.7,3.24,5.54,6.64,8.57,10.02h.8c-3.16-3.51-6.11-7.04-8.91-10.41-6.37-7.65-11.87-14.25-17.65-18Z"></path>
          <path class="cls-4" d="M-29.52,276.86c3.72,2.72,8.96,1.88,13.17,1.21l.64-.1c2.52-.4,5.11-.87,7.61-1.34,6.37-1.18,12.96-2.4,19.41-2.44,8.33-.04,15.48,1.33,21.74,4.25,1.25.58,2.53,1.25,3.89,1.95,4.52,2.34,9.52,4.94,14.6,4.94,1.31,0,2.62-.17,3.93-.56,4.89-1.46,5.23-5.55,5.74-11.74.59-7.07,1.39-16.76,8.58-29.67,4.73-8.5-7.53-17.49-15.65-23.44-1.3-.96-2.53-1.86-3.56-2.66,0,0,0,0,0,0-3.2-2.34-6.36-4.11-9.42-5.82-4.26-2.39-8.28-4.64-12.28-8.26-3.26-2.94-6.09-6.31-8.83-9.57-2.18-2.59-4.42-5.27-6.88-7.72-3.71-3.72-8.35-7.15-14.17-10.49-1.68-.96-3.36-2-4.99-3-2.86-1.75-5.81-3.56-8.85-5.08-.56-.28-1.46-1.03-2.42-1.82-2.22-1.84-4.74-3.92-6.32-3.37-4,1.39-2.42,9.06-1.26,14.66.35,1.67.64,3.12.7,4,.76,12.93,1.12,27.33,1.12,44.04,0,9.86-3.1,17.82-6.39,26.25-1.09,2.79-2.21,5.68-3.26,8.71-1.71,4.95-1.56,13.66,3.16,17.11ZM-32.12,259.94c1.04-3.02,2.17-5.91,3.25-8.69,3.31-8.48,6.43-16.49,6.43-26.46,0-16.72-.37-31.13-1.12-44.07-.05-.92-.36-2.38-.71-4.08-1.05-5.08-2.64-12.76.88-13.98,1.27-.44,3.86,1.7,5.75,3.27,1.03.85,1.91,1.58,2.53,1.89,3.01,1.51,5.96,3.32,8.81,5.06,1.63,1,3.32,2.04,5.01,3.01,5.77,3.32,10.37,6.72,14.04,10.4,2.44,2.44,4.68,5.11,6.84,7.69,2.75,3.28,5.6,6.67,8.88,9.63,4.05,3.66,8.1,5.93,12.38,8.33,3.04,1.7,6.18,3.47,9.35,5.78,1.03.81,2.26,1.71,3.57,2.67,7.95,5.83,19.95,14.64,15.48,22.67-7.25,13.03-8.06,22.79-8.66,29.91-.51,6.16-.82,9.88-5.32,11.22-6.18,1.84-12.5-1.44-18.09-4.33-1.36-.71-2.65-1.37-3.91-1.96-6.22-2.9-13.26-4.31-21.5-4.31-.16,0-.33,0-.49,0-6.49.04-13.11,1.27-19.51,2.45-2.5.46-5.08.94-7.59,1.33l-.64.1c-4.11.65-9.22,1.47-12.73-1.11-4.43-3.24-4.55-11.77-2.95-16.43Z"></path>
          <path class="cls-4" d="M-13.03,264.41c5.93,3.85,13.63,2.79,20.42,1.86,1.66-.23,3.22-.44,4.74-.59,9-.87,16.94.8,24.27,5.09,2.63,1.54,5.91,3.46,8.88,3.46,1.47,0,2.86-.47,4.06-1.7,2.53-2.59,2.97-6.07,3.36-9.14.15-1.18.29-2.3.54-3.31.56-2.27,1.45-4.47,2.32-6.6,1.42-3.48,2.89-7.07,2.98-11.16.2-9.38-7.23-13.55-14.42-17.58-1.7-.96-3.47-1.94-5.12-3.01-6.75-4.02-13.13-7.81-18.43-13.51-1.85-1.99-3.51-4.19-5.11-6.32-2.29-3.04-4.66-6.18-7.62-8.77-2.93-2.56-10.38-8.31-16.42-6.5-5.13,1.55-5.86,6.49-5.88,11.61-.02,4.45.3,9.27.61,13.94.31,4.71.64,9.59.61,14.12-.02,5.23-1.21,10.27-2.36,15.15-.72,3.08-1.47,6.27-1.93,9.51-.83,5.79-.38,10.29,4.51,13.46ZM-16.95,251.04c.46-3.21,1.2-6.38,1.93-9.45,1.15-4.91,2.35-9.99,2.37-15.28.02-4.55-.3-9.44-.62-14.16-.31-4.65-.63-9.47-.61-13.9.02-4.55.46-9.54,5.46-11.04,5.75-1.73,13.01,3.88,15.86,6.37,2.91,2.55,5.26,5.67,7.53,8.68,1.61,2.14,3.28,4.36,5.15,6.37,5.35,5.76,11.76,9.58,18.6,13.64,1.61,1.04,3.38,2.03,5.1,2.99,7.04,3.95,14.31,8.03,14.12,17.05-.09,3.98-1.53,7.52-2.93,10.95-.88,2.15-1.78,4.37-2.35,6.68-.26,1.04-.4,2.18-.55,3.38-.38,2.98-.8,6.35-3.19,8.8-3.28,3.37-8.23.47-12.21-1.86-6.17-3.61-12.77-5.39-20.04-5.39-1.5,0-3.03.08-4.59.23-1.53.15-3.1.36-4.76.59-6.69.92-14.27,1.96-20.01-1.77-4.62-3-5.04-7.32-4.24-12.88Z"></path>
          <path class="cls-4" d="M125.68,262.36c10.5-23.65,28.77-33.36,46.42-42.74,12.27-6.52,24.97-13.27,35.08-24.62,12.63-14.19,16.54-27.95,21.06-43.89.91-3.23,1.86-6.56,2.91-10.03,2.79-9.22,7.9-18.4,12.85-27.27,2-3.59,3.89-6.99,5.64-10.39.02-.02.04-.04.05-.07,4.35-8.72,9.24-17.29,13.97-25.57,12.15-21.28,24.71-43.28,28.34-68.73,3.2-22.46,1.73-37.25-1.25-51.06h-.59c3.06,13.98,4.48,28.37,1.26,50.97-3.61,25.34-15.59,46.31-28.27,68.52-4.73,8.28-9.62,16.84-13.97,25.57-.02.02-.04.04-.05.06-1.75,3.4-3.64,6.8-5.64,10.4-4.96,8.9-10.09,18.11-12.9,27.39-1.05,3.48-2,6.82-2.92,10.04-4.69,16.52-8.39,29.57-20.93,43.65-10.04,11.28-22.69,18-34.92,24.49-17.75,9.43-36.1,19.18-46.69,43.02-10.15,22.84-2.77,40.5,4.36,57.57,5.81,13.9,11.81,28.28,8.64,45.62-.05.25-.1.49-.15.74h.61c.04-.21.09-.42.13-.63,3.2-17.51-2.84-31.97-8.68-45.95-7.41-17.73-14.41-34.49-4.36-57.1Z"></path>
          <path class="cls-4" d="M7.87,238.05c.11,1.07.07,2.15.02,3.19-.09,2.23-.19,4.53,1.29,6.66,2.14,3.06,8.1,3.01,12.9,2.96,1.69-.01,3.29-.03,4.49.1.05,0,.1,0,.15,0,3.38,0,6.74-2,8.2-4.89,1.17-2.31.92-4.82-.66-6.89-1.98-2.59-4.86-3.76-7.64-4.89-.75-.3-1.49-.61-2.23-.94-2-.9-3.89-2.11-5.72-3.28-.46-.3-.93-.59-1.39-.89-.48-.3-.96-.63-1.45-.97-1.87-1.28-3.99-2.72-6.32-2.83-1.55-.07-2.65.32-3.29,1.15-1.4,1.85-.19,5.46.77,8.36.43,1.29.8,2.41.88,3.15ZM6.7,226.91c.51-.68,1.43-.98,2.78-.92,2.16.1,4.12,1.44,6.01,2.73.5.34.99.67,1.47.98.46.29.93.59,1.39.88,1.85,1.18,3.75,2.4,5.79,3.32.74.33,1.5.64,2.25.95,2.83,1.15,5.51,2.24,7.4,4.7,1.46,1.91,1.68,4.14.6,6.26-1.39,2.74-4.62,4.62-7.78,4.57-.82-.09-1.84-.12-2.95-.12-.51,0-1.04,0-1.58,0-4.66.04-10.45.09-12.41-2.71-1.37-1.96-1.28-4.06-1.19-6.29.05-1.07.09-2.17-.02-3.28-.09-.8-.47-1.95-.91-3.27-.92-2.77-2.07-6.22-.86-7.81Z"></path>
          <path class="cls-4" d="M7.12,258.59c3.41.45,5.92.57,8.58.7,3.71.18,7.55.37,14.23,1.49,1.14.19,2.25.29,3.32.29,4.88,0,8.92-1.97,11.59-5.71,3.57-5.01,3.89-12.23.78-17.95-3.01-5.54-8.79-7.94-14.38-10.26-1.57-.65-3.06-1.27-4.49-1.95-3.83-1.83-7.68-4.76-11.79-8.95-.94-.96-1.83-2.05-2.77-3.19-2.6-3.17-5.3-6.45-9.28-7.38-1.21-.28-2.31-.08-3.25.6-2.56,1.85-3.19,6.64-3.32,8.07-.25,2.68-.08,5.36.08,7.95.13,2.1.26,4.27.18,6.42-.1,2.4-.58,4.91-1.05,7.33-1,5.16-2.02,10.49.43,15.41,1.94,3.88,6,6.49,11.14,7.16ZM-3.87,236.13c.47-2.45.96-4.98,1.06-7.42.09-2.18-.05-4.36-.18-6.48-.16-2.57-.32-5.23-.08-7.86.26-2.81,1.2-6.29,3.08-7.64.79-.57,1.72-.74,2.76-.5,3.78.89,6.41,4.08,8.95,7.18.95,1.16,1.85,2.25,2.81,3.23,4.15,4.24,8.06,7.21,11.95,9.07,1.45.69,3.01,1.34,4.52,1.97,5.5,2.28,11.18,4.64,14.09,9.99,3,5.53,2.71,12.5-.74,17.33-3.12,4.37-8.21,6.21-14.33,5.19-6.71-1.12-10.57-1.31-14.3-1.49-2.64-.13-5.14-.25-8.53-.7-4.95-.65-8.84-3.14-10.69-6.84-2.37-4.74-1.36-9.97-.38-15.03Z"></path>
          <path class="cls-4" d="M28.33-12.41C25.08.18,17.12,13.08,9.42,25.56-6.07,50.65-22.08,76.59-2.33,102.67c13.18,17.4,21.22,20.17,30.52,23.39,5.14,1.78,10.46,3.61,17.3,8.05,5.7,3.7,11.17,10.27,17.52,17.88,13.53,16.24,30.37,36.46,58.86,38.43,7.3.51,21.41.66,34-3.98,8.01-2.96,16.1-7.41,25.45-14.01,2.71-1.91,5.54-3.75,8.53-5.7,8.79-5.71,17.88-11.61,23.83-19.53,7.9-10.52,15.32-23.58,22.49-36.21,3.54-6.24,6.88-12.13,10.21-17.59.02-.04.04-.09.04-.13.09-.17.2-.39.34-.67,10.33-19.95,34.47-69.51,35.71-98.85.52-12.3-2.4-24.2-5.92-35.77h-.62c3.54,11.58,6.47,23.48,5.95,35.74-1.23,29.22-25.34,78.69-35.65,98.6-.24.47-.41.79-.49.96,0,.01,0,.02-.01.04-3.29,5.41-6.59,11.22-10.08,17.37-7.16,12.62-14.57,25.67-22.45,36.15-5.89,7.84-14.93,13.71-23.68,19.39-3,1.95-5.83,3.79-8.55,5.71-9.31,6.57-17.35,11-25.32,13.94-12.48,4.6-26.5,4.44-33.75,3.94-28.24-1.96-44.99-22.07-58.44-38.22-6.37-7.65-11.87-14.25-17.65-18-6.89-4.47-12.25-6.32-17.43-8.11-9.21-3.18-17.17-5.93-30.24-23.19-19.51-25.75-3.61-51.52,11.78-76.44C17.65,13.35,25.64.41,28.9-12.27c2.62-10.16.92-21.04-4.37-29.75h-.71c5.37,8.63,7.11,19.48,4.5,29.6Z"></path>
          <path class="cls-4" d="M29.08,335.63c-10.04-7.58-22.74-10.88-34.83-9.06-6.94,1.04-15.12,5.77-25.02,14.44-8.35,7.32-15.41,16.1-22.04,25.02h.74c6.54-8.77,13.5-17.39,21.69-24.58,9.81-8.6,17.89-13.28,24.72-14.3,11.93-1.8,24.47,1.47,34.38,8.95,9.73,7.35,15.95,17.97,17.51,29.93h.6s0-.01,0-.02c-1.57-12.14-7.87-22.93-17.75-30.39Z"></path>
          <path class="cls-4" d="M137.29,262.11c7.97-17.47,26.36-27.56,44.15-37.32,12.44-6.82,25.29-13.88,34.32-23.37,10.23-10.76,14.73-25.4,19.08-39.56,1.61-5.23,3.27-10.64,5.18-15.65,4.65-12.2,8.18-21.06,14.4-31.9.03-.02.05-.05.07-.09,4.49-8.59,9.34-17.13,14.02-25.38,16.74-29.46,32.55-57.28,34.78-90.19.98-14.5-1.09-27.19-4.1-40.67h-.61c3.02,13.48,5.1,26.16,4.12,40.63-2.22,32.78-18,60.54-34.71,89.94-4.63,8.15-9.41,16.56-13.85,25.05,0,.01-.02.02-.03.03-6.38,11.06-9.95,19.99-14.66,32.37-1.92,5.03-3.58,10.45-5.19,15.69-4.33,14.1-8.81,28.67-18.94,39.33-8.97,9.42-21.78,16.46-34.18,23.25-17.87,9.81-36.35,19.94-44.4,37.59-9,19.74-2.11,39.25,4.56,58.13,5.27,14.91,10.71,30.32,8.21,45.67-.02.13-.05.25-.07.38h.6c.02-.1.04-.19.05-.28,2.53-15.5-2.95-30.99-8.24-45.97-6.63-18.76-13.48-38.16-4.58-57.68Z"></path>
          <path class="cls-4" d="M85.61,297.24c-3.44-12.42-1.52-27.64,4.88-38.77,1.27-2.21,2.89-4.57,4.61-7.07,6.36-9.26,13.57-19.76,8.75-30.37-2.98-6.55-15.42-12.86-26.4-18.42-5.17-2.62-10.05-5.09-13.09-7.21-7.45-5.19-14.02-11.52-20.38-17.65-4.41-4.26-8.97-8.66-13.81-12.65-5.97-4.93-12.56-9.34-18.95-13.59-13.02-8.69-26.48-17.67-35.05-31.53-16.04-25.94-14.82-54,3.83-88.29.39-.72,1.1-1.92,2.01-3.45C-11.77,17.74,2.77-6.82-.82-17.16c-.68-1.95-1.98-3.31-3.87-4.03-5.47-2.1-16.87,7.35-18.74,9.18-14.78,14.43-24.45,34.85-32.98,52.87-8.47,17.89-6.52,70.01-2.31,89.27,1.39,6.37,3.48,12.64,5.49,18.7,2.78,8.35,5.65,16.99,6.72,25.96,3.64,30.37-3.6,66.26-18.91,94.12v1.23c15.72-28.09,23.19-64.59,19.5-95.42-1.08-9.03-3.96-17.69-6.75-26.07-2.01-6.05-4.09-12.3-5.47-18.64-4.19-19.2-6.16-71.11,2.27-88.89C-47.36,23.13-37.72,2.76-23.01-11.59c2.59-2.53,13.29-10.9,18.11-9.05,1.72.66,2.9,1.9,3.52,3.67C2.12-6.88-12.86,18.41-18.5,27.93c-.91,1.53-1.62,2.74-2.02,3.47-18.77,34.5-19.98,62.75-3.81,88.89,8.64,13.98,22.16,23,35.23,31.72,6.37,4.25,12.95,8.64,18.9,13.56,4.82,3.98,9.37,8.38,13.78,12.62,6.37,6.14,12.96,12.5,20.45,17.71,3.07,2.14,7.97,4.62,13.16,7.25,10.89,5.52,23.23,11.77,26.13,18.14,4.68,10.3-2.43,20.65-8.7,29.79-1.72,2.51-3.35,4.87-4.63,7.11-6.48,11.26-8.41,26.65-4.94,39.22.98,3.55,3.69,9.52,6.83,16.44,7.41,16.33,17.87,39.39,15.36,52.21h.58c2.45-13.1-7.98-36.11-15.4-52.45-3.13-6.89-5.83-12.84-6.8-16.35Z"></path>
          <path class="cls-4" d="M13.45,299.59c-22.47-3.19-45.38,3.09-61.29,16.78-7.31,6.29-12.72,14.08-17.57,22.09v1.16c4.96-8.27,10.46-16.34,17.96-22.8,15.78-13.58,38.51-19.81,60.82-16.65,20.26,2.87,37.05,13.06,47.25,28.7,9.17,14.04,11.66,27.27,12.84,37.16h.6c-1.18-9.96-3.68-23.3-12.94-37.49-10.3-15.78-27.23-26.07-47.67-28.96Z"></path>
          <path class="cls-4" d="M-50.45,277.37c-5.72,11.4-10.67,21.25-8.01,23.26.57.43,1.34.62,2.26.62,3.93,0,10.59-3.45,15.66-6.32,14.52-8.19,26.22-12.08,39.15-13,13.26-.95,25.13,1.11,35.28,6.11,3.53,1.74,22.33,10.28,26.58,8.93,8.38-2.66,8.29-13.27,8.21-21.8-.02-2.73-.04-5.3.22-7.28.52-3.86,1.69-7.69,3.49-11.39.87-1.79,1.93-3.59,3.05-5.48,4.23-7.19,9.03-15.33,2.38-23.57-5.85-7.24-15.97-13.1-23.36-17.37-2.94-1.7-5.47-3.17-7-4.31-7.01-5.24-13.06-11.48-18.91-17.52-4.79-4.94-9.31-9.61-13.92-13.24-4.34-3.42-9.21-6.19-13.92-8.88-4.56-2.6-9.27-5.29-13.49-8.55-6.48-5-11.11-11.19-16.01-17.75l-.8-1.07c-.11-.14-.36-.56-.67-1.08-1.85-3.05-6.17-10.2-9.63-10.6-.8-.09-1.49.16-2.08.76-2.9,2.95,2.24,20.09,6,32.62,1.35,4.49,2.51,8.36,2.9,10.32,1.65,8.22,1.98,17,2.31,25.49l.11,2.84c.53,13.21-6.22,48.91-13.23,64.72-1.9,4.28-4.26,8.99-6.55,13.55ZM-30.08,199.07l-.11-2.84c-.32-8.52-.66-17.32-2.32-25.59-.4-1.99-1.57-5.87-2.92-10.37-3.51-11.68-8.8-29.33-6.15-32.03.4-.41.84-.61,1.35-.61.08,0,.16,0,.24.01,3.17.37,7.55,7.6,9.19,10.32.35.58.58.96.71,1.13l.8,1.07c4.93,6.59,9.58,12.81,16.12,17.86,4.26,3.29,8.99,5.99,13.56,8.6,4.69,2.68,9.54,5.44,13.84,8.83,4.58,3.61,9.09,8.26,13.86,13.19,5.87,6.06,11.93,12.32,18.98,17.58,1.56,1.16,4.11,2.64,7.06,4.35,7.35,4.25,17.42,10.08,23.2,17.23,6.4,7.92,1.91,15.53-2.43,22.9-1.12,1.91-2.19,3.71-3.07,5.52-1.83,3.75-3.02,7.64-3.55,11.57-.27,2.03-.25,4.62-.23,7.37.07,8.33.16,18.7-7.8,21.22-3.71,1.18-20.7-6.22-26.14-8.9-10.25-5.05-22.22-7.13-35.58-6.17-13.02.93-24.8,4.84-39.4,13.08-3.52,1.99-14.24,8.04-17.27,5.74-2.26-1.71,3.05-12.29,8.19-22.52,2.29-4.57,4.66-9.29,6.57-13.58,7.03-15.87,13.81-51.72,13.28-64.99Z"></path>
          <path class="cls-4" d="M44.96,323.12c-7.09-7.77-18.87-17.04-34.72-17.08h-.26c-41.79,0-57.64,23.45-74.41,48.28-.33.49-.66.98-.99,1.47v1.06c.5-.73.99-1.46,1.48-2.19,16.68-24.69,32.44-48.02,73.92-48.02h.26c25.71.06,46.77,26.33,52.28,51.69.39,1.78.49,4.47.49,7.71h.59c0-3.28-.11-6.01-.5-7.84-2.76-12.68-9.37-25.47-18.14-35.08Z"></path>
          <path class="cls-4" d="M87.15,324.03c-4.79-8.01-9.74-16.28-11.21-25-2.32-13.73-.18-29.96,5.44-41.35,1.08-2.19,2.92-4.65,4.86-7.26,4.37-5.86,9.32-12.51,7.64-18.71-2.59-9.6-16.84-18.3-30.61-26.7-7.8-4.76-15.87-9.68-21.41-14.58-7.68-6.79-11.74-11.04-15.01-14.45-3.22-3.37-5.77-6.03-10.32-9.63-3.65-2.89-7.72-5.26-11.65-7.55-4.05-2.36-8.24-4.79-11.95-7.8-21.07-17.02-32.27-36.61-35.23-61.65-2.76-23.33,1.22-41.01,14.18-63.06,2.15-3.65,4.59-7.21,6.95-10.66,2.59-3.78,5.28-7.7,7.58-11.74,1.13-1.98,2.68-5.8,1.34-7.51-.68-.87-1.96-1.05-3.82-.53-6.43,1.79-14.01,16.14-19.55,26.61-1.73,3.28-3.23,6.11-4.38,7.96-7.32,11.75-11.19,21.92-11.82,31.08-.51,7.46-1.14,15.38-1.98,24.93-1.11,12.66-2.25,25.76.52,39.73,1.35,6.82,3.75,13.47,6.07,19.9,1.78,4.94,3.62,10.04,4.97,15.18,4.37,16.61,5.33,35.09,2.72,52.03-3.93,25.51-12.63,50.97-25.87,75.76v1.26c13.57-25.15,22.47-51.01,26.46-76.92,2.62-17.02,1.65-35.59-2.74-52.27-1.36-5.16-3.2-10.28-4.99-15.23-2.31-6.41-4.7-13.04-6.05-19.82-2.76-13.89-1.61-26.94-.51-39.56.84-9.56,1.47-17.48,1.98-24.94.63-9.06,4.46-19.13,11.73-30.8,1.16-1.87,2.66-4.71,4.4-8C-29.94,12.94-22.12-1.86-15.94-3.58c.64-.18,1.2-.27,1.67-.27.7,0,1.21.2,1.52.6,1.07,1.37-.25,4.85-1.39,6.85-2.29,4.02-4.96,7.92-7.55,11.7-2.37,3.45-4.82,7.02-6.97,10.69-13.04,22.17-17.04,39.96-14.26,63.43,2.98,25.2,14.24,44.92,35.45,62.04,3.75,3.03,7.96,5.48,12.03,7.85,3.92,2.28,7.97,4.64,11.58,7.5,4.52,3.58,7.06,6.23,10.26,9.57,3.28,3.42,7.35,7.68,15.05,14.48,5.58,4.93,13.67,9.87,21.49,14.65,13.68,8.35,27.82,16.98,30.35,26.35,1.6,5.93-3.26,12.45-7.55,18.2-1.96,2.63-3.81,5.11-4.91,7.35-5.67,11.5-7.83,27.87-5.49,41.72,1.49,8.83,6.47,17.15,11.29,25.2,4.38,7.32,8.9,14.88,10.71,22.71.73,3.18.56,10.97-2.41,15.18-1.09,1.54-2.45,2.42-4.05,2.61-3.19.36-7.45-7.47-8.9-11.1-.84-2.09-1.74-4.53-2.69-7.12-3.62-9.8-8.13-21.99-13.88-28.59-21.19-24.31-48.39-33.05-80.85-25.98-19.69,4.29-36.17,13.94-49.99,29.34v.9c13.83-15.59,30.34-25.34,50.12-29.65,32.22-7.02,59.23,1.66,80.27,25.79,5.68,6.52,10.17,18.65,13.77,28.4.96,2.59,1.86,5.03,2.7,7.13.05.12,5.02,12,9.52,11.47,1.77-.21,3.27-1.17,4.46-2.85,3.07-4.35,3.26-12.38,2.5-15.65-1.83-7.92-6.38-15.52-10.78-22.88Z"></path>
          <path class="cls-4" d="M4.03,317.14c-.19,0-.39,0-.59,0-30.96.27-47.69,23.84-63.87,46.63-.54.76-1.08,1.52-1.61,2.27h.73c.46-.64.91-1.28,1.37-1.93,16.09-22.67,32.74-46.11,63.39-46.38.19,0,.39,0,.58,0,18.92,0,33.44,8.2,42.03,23.73,4.03,7.3,6.54,15.73,7.78,24.57h.59c-1.24-8.94-3.77-17.48-7.85-24.86-8.69-15.74-23.39-24.04-42.54-24.04Z"></path>
          <path class="cls-4" d="M111.04,269.73c7.77-28.24,29.13-45.79,51.06-60.55.35-.23,1.53-.89,3.16-1.8,10.04-5.6,36.7-20.48,38.37-28.96.22-1.13,0-2.12-.66-2.95-1.32-1.66-2.78-2.56-4.48-2.74-4.13-.46-8.85,3.39-14.85,8.24-3.28,2.66-7,5.67-11.05,8.27-15.62,10.03-32.94,14-51.48,11.81-29.06-3.45-43.57-19.76-57.6-35.53-7.28-8.18-14.8-16.64-24.27-23.22-5.54-3.86-11.03-6.94-16.34-9.93-10.24-5.76-19.91-11.2-28.54-21.28C-31.46,80.91-13.74,51.81,3.4,23.66,10.14,12.58,16.51,2.11,20.05-8.14c2.68-7.77,2.96-20.22-2.75-29.22-1.13-1.78-2.44-3.33-3.91-4.65h-.92c1.65,1.38,3.09,3.03,4.33,4.97,5.6,8.83,5.32,21.07,2.69,28.71C15.97,1.86,9.62,12.3,2.89,23.35c-8.46,13.9-17.21,28.28-20.61,43.01-3.85,16.71-.04,31.47,11.64,45.12,8.7,10.16,18.41,15.62,28.7,21.41,5.3,2.98,10.77,6.06,16.29,9.9,9.41,6.54,16.91,14.97,24.16,23.13,14.11,15.86,28.7,32.26,57.98,35.73,18.68,2.22,36.13-1.79,51.87-11.9,4.08-2.62,7.81-5.64,11.1-8.31,5.66-4.58,10.55-8.54,14.41-8.12,1.52.17,2.86.99,4.07,2.52.55.69.73,1.5.54,2.46-1.62,8.21-29.06,23.52-38.08,28.56-1.71.95-2.83,1.58-3.2,1.83-22.02,14.82-43.48,32.46-51.3,60.88-6.48,23.55,2.01,42.47,9.5,59.16,5.75,12.81,11.2,24.96,8.96,37.3h.6c2.23-12.48-3.25-24.68-9.02-37.55-7.45-16.6-15.89-35.42-9.47-58.76Z"></path>
          <path class="cls-4" d="M96.96,296.32c-5.59-32.9,8.7-48.25,19.14-59.46,6.07-6.51,10.86-11.66,8.94-17.91-2.48-8.08-8.04-9.75-16.46-12.28-9.23-2.77-21.87-6.57-38.84-20.35-7.77-6.31-14.53-12.66-21.07-18.81-8.47-7.95-16.46-15.46-26.48-22.93-4.29-3.2-8.92-6.03-13.39-8.77-10.59-6.47-20.58-12.59-26.94-23.37-18.96-32.13-4.28-58.48,11.26-86.36C-.33,14.32,6.45,2.17,10.39-10.38c2.27-7.24,1.02-14.17-3.35-18.55-4.1-4.1-10.28-5.25-16.97-3.16C-26.77-26.81-36.63-11.03-45.33,2.9c-.71,1.13-1.41,2.26-2.11,3.36-1.81,2.86-3.77,5.74-5.84,8.79-4.37,6.42-8.83,12.98-12.13,19.76v1.38c3.32-7.14,8.02-14.05,12.62-20.8,2.08-3.05,4.05-5.94,5.86-8.81.7-1.11,1.4-2.23,2.11-3.37C-36.18-10.63-26.38-26.31-9.76-31.51c6.47-2.03,12.44-.93,16.37,3.01,4.21,4.21,5.41,10.92,3.21,17.95C5.9,1.93-.86,14.06-7.4,25.79c-7.48,13.43-15.22,27.32-18.52,41.57-3.7,15.98-1.32,30.83,7.26,45.39,6.43,10.9,16.96,17.34,27.14,23.57,4.46,2.73,9.08,5.55,13.35,8.73,9.99,7.45,17.98,14.95,26.43,22.89,6.55,6.15,13.32,12.51,21.1,18.84,17.06,13.86,29.76,17.67,39.04,20.46,8.53,2.56,13.68,4.11,16.07,11.88,1.81,5.92-2.64,10.71-8.81,17.33-10.52,11.3-24.93,26.77-19.29,59.96,1.29,7.58,5.4,16.77,9.75,26.5,6.54,14.61,13.64,30.52,11.8,43.12h.63c1.81-12.73-5.33-28.69-11.89-43.36-4.34-9.7-8.43-18.85-9.71-26.36Z"></path>
          <path class="cls-4" d="M640.33-25.38c-6.76,8.02-14.93,13.56-22.84,18.92-11.78,7.98-22.9,15.52-25.25,29.69-1.97,11.88.64,25.79,3.17,39.23,1.49,7.92,2.89,15.4,3.34,22.24.5,7.6-.15,15.41-.78,22.95-.79,9.48-1.61,19.28-.16,28.78,1.31,8.6,3.91,16.82,6.42,24.78,3.75,11.87,7.62,24.15,7.09,37.56-1.49,37.43-17.73,75.4-48.26,112.83-.81,1-1.63,2.01-2.46,3.03-15.37,18.93-34.5,42.48-60.06,45.18-16.96,1.79-36.31-7.74-48.17-23.72-10.11-13.63-12.67-29.14-7.01-42.54,10.09-23.91,30.57-38.33,50.37-52.29,20.77-14.63,42.25-29.76,52.1-55.88,10.19-27.02,3.78-42.67-3-59.25-3.34-8.16-6.8-16.6-8.44-26.78-3.11-19.34,8.05-24.81,17.03-29.21,5.34-2.62,9.95-4.87,10.65-9.41,3.02-19.58,3.3-29.08.9-30.79-1.72-1.23-3.98-1.27-6.74-.11-13.94,5.87-37.23,41.11-38.7,50.7-2.34,15.29,3.07,31.67,8.3,47.5,5.66,17.14,11.01,33.33,7,47.76-4.04,14.56-12.86,28.11-24.2,37.17-5.09,4.07-10.57,8.11-16.37,12.4-21.49,15.87-45.84,33.87-55.58,57.96-8.32,20.58-4.52,49.49,9.02,68.75,4.07,5.79,8.85,10.47,14.15,13.98h1.07c-5.54-3.51-10.52-8.32-14.74-14.32-13.44-19.1-17.2-47.78-8.96-68.18,9.68-23.94,33.96-41.88,55.39-57.71,5.8-4.29,11.28-8.33,16.38-12.41,11.43-9.13,20.33-22.79,24.4-37.47,4.05-14.6-1.32-30.88-7.01-48.11-5.21-15.77-10.59-32.08-8.27-47.23,1.46-9.5,24.53-44.43,38.34-50.24,2.55-1.07,4.62-1.06,6.16.05,3.17,2.27-.08,23.31-1.15,30.22-.65,4.23-5.13,6.43-10.32,8.97-9.15,4.48-20.54,10.06-17.35,29.83,1.65,10.24,5.12,18.71,8.48,26.91,6.74,16.46,13.11,32.01,3,58.81-9.79,25.95-31.19,41.03-51.89,55.61-19.87,14-40.43,28.48-50.58,52.54-5.74,13.61-3.16,29.32,7.09,43.13,11.98,16.14,31.56,25.77,48.71,23.96,25.81-2.73,45.03-26.39,60.46-45.4.83-1.02,1.65-2.03,2.46-3.03,30.62-37.53,46.9-75.61,48.4-113.18.54-13.52-3.35-25.84-7.12-37.77-2.5-7.93-5.09-16.14-6.4-24.69-1.44-9.44-.63-19.2.16-28.64.63-7.57,1.28-15.39.78-23.04-.45-6.87-1.86-14.37-3.35-22.31-2.52-13.39-5.12-27.25-3.17-39.03,2.31-13.92,12.82-21.05,25-29.3,7.94-5.38,16.15-10.95,22.96-19.03,3.01-3.57,5.88-7.36,8.75-11.31v-1.01c-3.03,4.18-6.04,8.18-9.21,11.94Z"></path>
          <path class="cls-4" d="M581.79,9.81c-7.38,16.21-5.92,26.79-4.64,36.11,1.03,7.46,2,14.5-1.51,23.47-2.36,6.01-7.83,9.2-13.13,12.28-5.49,3.2-10.68,6.22-12.37,12.11-2.61,9.11,2.96,23.95,7.02,34.79.85,2.28,1.66,4.43,2.26,6.19,7.44,21.96,7.67,42.56.68,61.2-11.68,31.16-32.77,42.37-55.1,54.24-14.8,7.87-30.11,16-42.7,30.47-8.41,9.66-12.39,23.35-10.41,35.72,1.71,10.62,7.63,19.42,16.68,24.8,7.49,4.45,14.81,6.35,21.91,6.35,28.92,0,54.03-31.64,70.33-52.18l1.78-2.24c10.66-13.39,20.25-31.54,27.02-51.11,6.98-20.15,10.44-40.53,9.76-57.37-.43-10.6-2.75-21.01-4.99-31.09-2.01-9.04-4.09-18.38-4.79-27.8-.49-6.62,0-13.31.48-19.77.4-5.41.81-11.01.65-16.55-.22-7.49-1.55-15.72-2.95-24.42-3.66-22.65-7.8-48.32,8.8-64.74,4.62-4.57,10.62-8.78,16.42-12.86,6.86-4.82,13.96-9.8,19.17-15.58,3.97-4.41,7.57-9.1,10.98-13.86h-.73c-3.33,4.63-6.84,9.18-10.69,13.46-5.17,5.73-12.23,10.69-19.07,15.49-5.82,4.09-11.84,8.31-16.5,12.92-16.82,16.64-12.65,42.47-8.97,65.26,1.4,8.69,2.73,16.89,2.94,24.35.16,5.51-.25,11.1-.65,16.49-.48,6.49-.98,13.2-.48,19.86.7,9.46,2.78,18.82,4.8,27.88,2.24,10.05,4.55,20.44,4.98,30.98,1.38,34.19-14.03,79.64-36.66,108.08l-1.78,2.25c-20.18,25.42-53.94,67.98-91.47,45.68-8.9-5.29-14.72-13.95-16.4-24.39-1.96-12.2,1.97-25.7,10.27-35.24,12.51-14.38,27.77-22.49,42.53-30.33,22.43-11.92,43.62-23.18,55.38-54.55,7.04-18.78,6.81-39.5-.67-61.6-.6-1.78-1.41-3.93-2.26-6.21-4.03-10.76-9.56-25.49-7-34.41,1.62-5.66,6.71-8.62,12.09-11.76,5.38-3.13,10.95-6.38,13.38-12.58,3.57-9.11,2.59-16.23,1.55-23.76-1.34-9.7-2.72-19.73,4.59-35.79,5.47-12.03,17.5-21.8,29.12-31.24,5.54-4.5,10.78-8.75,15.06-13.07,2.42-2.44,4.62-5.05,6.67-7.76h-.75c-1.96,2.57-4.05,5.04-6.34,7.35-4.26,4.29-9.48,8.54-15.01,13.03-11.68,9.49-23.75,19.3-29.29,31.46Z"></path>
          <path class="cls-4" d="M419.92,330.43c-5.91-24.77-.08-52.18,15.21-71.56,9.77-12.37,23.63-22.19,37.03-31.69,16.96-12.01,34.5-24.44,44.28-42.28,11.07-20.2,3.01-40.26-4.79-59.66-7.05-17.53-14.33-35.65-7.49-53.84,7.71-20.48,26.37-33.41,44.41-45.92,12.51-8.67,25.45-17.64,34.48-29,9.13-11.5,15.01-24.97,20.16-38.5h-.64c-5.11,13.42-10.95,26.76-19.99,38.13-8.97,11.3-21.87,20.24-34.35,28.89-18.12,12.56-36.85,25.54-44.63,46.2-6.93,18.4.4,36.64,7.49,54.27,7.75,19.27,15.76,39.2,4.82,59.15-9.72,17.73-27.2,30.11-44.1,42.08-13.44,9.52-27.33,19.36-37.16,31.8-15.4,19.51-21.28,47.12-15.33,72.06,3.4,14.26,10.27,26.38,19.91,35.47h.88c-9.8-9.06-16.78-21.23-20.21-35.61Z"></path>
          <path class="cls-4" d="M364.6,54.56c3.41.45,5.92.57,8.58.7,3.71.18,7.55.37,14.23,1.49,1.14.19,2.25.29,3.32.29,4.88,0,8.92-1.97,11.59-5.71,3.58-5.01,3.89-12.23.78-17.95-3.01-5.54-8.79-7.94-14.38-10.26-1.57-.65-3.06-1.27-4.49-1.95-3.83-1.83-7.68-4.76-11.79-8.95-.94-.96-1.83-2.05-2.78-3.19-2.6-3.17-5.3-6.45-9.28-7.38-1.21-.28-2.31-.08-3.25.6-2.56,1.85-3.19,6.64-3.32,8.07-.25,2.68-.08,5.36.08,7.95.13,2.1.26,4.27.18,6.42-.1,2.4-.58,4.91-1.05,7.33-.99,5.16-2.02,10.49.43,15.41,1.94,3.88,6,6.49,11.14,7.16ZM353.61,32.1c.47-2.45.96-4.98,1.06-7.42.09-2.17-.05-4.36-.18-6.48-.16-2.57-.32-5.23-.08-7.86.26-2.81,1.2-6.29,3.08-7.64.8-.57,1.73-.74,2.76-.5,3.78.89,6.41,4.08,8.95,7.18.95,1.16,1.85,2.25,2.81,3.23,4.15,4.24,8.06,7.21,11.96,9.07,1.45.69,3.01,1.34,4.52,1.97,5.5,2.28,11.18,4.64,14.09,9.99,3,5.53,2.71,12.5-.74,17.33-3.12,4.37-8.21,6.21-14.33,5.19-6.71-1.12-10.57-1.31-14.3-1.49-2.64-.13-5.14-.25-8.53-.7-4.95-.65-8.84-3.14-10.69-6.84-2.37-4.74-1.36-9.97-.38-15.03Z"></path>
          <path class="cls-4" d="M178.9,303.38c-3.11-19.34,8.05-24.81,17.03-29.21,5.34-2.62,9.95-4.87,10.65-9.41,3.02-19.58,3.3-29.08.9-30.79-1.72-1.23-3.98-1.27-6.74-.11-13.94,5.87-37.23,41.11-38.7,50.7-2.34,15.29,3.07,31.66,8.3,47.5,3.92,11.88,7.69,23.29,8.31,33.99h.6c-.61-10.78-4.4-22.25-8.34-34.17-5.21-15.77-10.59-32.08-8.27-47.23,1.46-9.5,24.53-44.43,38.34-50.24,2.55-1.07,4.62-1.06,6.16.05,3.17,2.27-.08,23.31-1.15,30.22-.65,4.23-5.13,6.43-10.32,8.97-9.15,4.48-20.54,10.06-17.35,29.83,1.65,10.24,5.12,18.71,8.48,26.91,4.53,11.07,8.89,21.72,8.19,35.66h.6c.7-14.03-3.68-24.75-8.24-35.89-3.34-8.16-6.8-16.6-8.44-26.78Z"></path>
          <path class="cls-4" d="M365.35,34.03c.11,1.07.07,2.15.02,3.19-.1,2.23-.19,4.53,1.29,6.66,2.14,3.06,8.1,3,12.9,2.96,1.69-.02,3.29-.03,4.49.1.05,0,.1,0,.15,0,3.38,0,6.74-2,8.2-4.89,1.17-2.31.92-4.82-.66-6.89-1.98-2.59-4.86-3.76-7.64-4.89-.75-.3-1.49-.61-2.23-.94-2-.9-3.89-2.11-5.72-3.28-.46-.3-.93-.59-1.39-.89-.47-.3-.96-.63-1.45-.96-1.87-1.28-3.99-2.72-6.32-2.83-1.55-.07-2.65.32-3.29,1.15-1.4,1.85-.19,5.46.77,8.36.43,1.29.8,2.41.88,3.15ZM364.17,22.88c.51-.68,1.43-.98,2.78-.92,2.16.1,4.12,1.44,6.01,2.73.5.34.99.67,1.47.98.46.29.92.59,1.39.88,1.85,1.18,3.75,2.41,5.79,3.32.74.33,1.5.64,2.25.95,2.83,1.15,5.51,2.24,7.39,4.69,1.46,1.91,1.68,4.14.6,6.26-1.39,2.74-4.6,4.6-7.78,4.57-.82-.09-1.84-.12-2.95-.12-.51,0-1.04,0-1.58,0-4.66.04-10.45.09-12.41-2.71-1.37-1.96-1.28-4.06-1.19-6.29.05-1.07.09-2.17-.02-3.28-.09-.8-.47-1.95-.91-3.27-.92-2.77-2.07-6.22-.86-7.81Z"></path>
          <path class="cls-4" d="M190.71,265.4c.74,0,1.67-.5,2.8-1.52,4.98-4.46,4.66-10.05,4.54-12.15-.02-.27-.03-.47-.02-.59.06-.85-.3-1.24-.6-1.41-.92-.51-2.47.22-3.08.65-2.32,1.66-4.2,4.31-4.89,6.92-.02.06-1.56,6.62.51,7.89.23.14.47.21.75.21ZM190.03,257.46c.66-2.49,2.45-5.01,4.66-6.59.5-.36,1.37-.72,1.98-.72.18,0,.34.03.47.1.09.05.35.19.3.85,0,.13,0,.36.02.66.12,2.03.42,7.41-4.34,11.68-1.3,1.16-2.28,1.59-2.84,1.25-1.31-.8-.7-5.5-.24-7.23Z"></path>
          <path class="cls-4" d="M257.12,308.49c-.07-6.91-.14-14.05-.69-20.65-.49-5.91-1.28-12.29-2.04-18.45-1.38-11.23-2.81-22.83-2.72-33.02.07-7.64,7.93-13.07,17.03-19.36,5.82-4.02,12.43-8.58,17.49-14.25,6.55-7.33,12.23-16.34,17.72-25.06,8.54-13.56,17.37-27.57,30.03-36.53,11.31-8,25.03-8.79,37.62-2.17,14.14,7.43,23.51,22.74,23.31,38.08-.11,8.07-3.18,18.99-9.41,33.37-3.63,8.39-8.73,16.73-13.66,24.79-8.07,13.21-15.7,25.68-17.64,38.6-2.17,14.46,3.58,27.41,17.58,39.57,8.79,7.64,16.77,10.7,24.41,9.36,13.16-2.31,15.43-16.33,17.09-26.57.15-.94.3-1.86.45-2.73,3.83-22.15,10.09-47.17,27.4-64.78,7.75-7.89,17.29-13.82,26.51-19.56,18.44-11.48,35.86-22.32,39.95-47.38,2.53-15.5-2.95-30.99-8.24-45.97-6.63-18.76-13.48-38.16-4.58-57.68,7.97-17.47,26.36-27.56,44.15-37.32,12.44-6.82,25.29-13.88,34.32-23.37,10.2-10.72,14.7-25.3,19.03-39.41h-.62c-4.3,14-8.78,28.43-18.84,39-8.97,9.42-21.78,16.45-34.18,23.25-17.87,9.8-36.35,19.94-44.4,37.59-9,19.74-2.11,39.25,4.56,58.13,5.27,14.91,10.71,30.32,8.21,45.67-4.04,24.79-21.35,35.57-39.67,46.97-9.25,5.76-18.82,11.71-26.62,19.65-17.43,17.72-23.71,42.85-27.56,65.1-.15.88-.3,1.79-.45,2.74-1.63,10.06-3.86,23.84-16.61,26.08-7.45,1.31-15.27-1.71-23.92-9.23-30.79-26.75-15.75-51.36.17-77.41,4.94-8.08,10.05-16.43,13.7-24.86,6.26-14.45,9.35-25.44,9.46-33.6.2-15.56-9.29-31.08-23.62-38.62-12.8-6.73-26.74-5.93-38.24,2.21-12.76,9.03-21.62,23.09-30.19,36.7-5.48,8.69-11.14,17.68-17.66,24.98-5.02,5.62-11.31,9.96-17.39,14.16-9.24,6.38-17.22,11.89-17.29,19.85-.09,10.23,1.34,21.86,2.72,33.1.76,6.16,1.54,12.54,2.03,18.43.55,6.58.62,13.71.68,20.61.09,8.96.18,18.23,1.3,26.68,1.69,12.72,3.91,22.42,6.06,30.86h.61c-2.16-8.46-4.39-18.19-6.08-30.94-1.12-8.42-1.21-17.67-1.29-26.61Z"></path>
          <path class="cls-4" d="M146.69,275.44c7.71-20.48,26.37-33.41,44.41-45.92,12.51-8.67,25.45-17.64,34.48-29,11.3-14.23,17.62-31.46,23.73-48.12,2.52-6.86,5.12-13.95,8.02-20.7,8.12-18.87,18.72-37.45,28.97-55.42,1.84-3.23,3.67-6.44,5.48-9.64,15.93-28.16,23.51-64.93,19.79-95.96-.52-4.32-1.45-8.55-2.58-12.7h-.61c1.15,4.19,2.09,8.44,2.61,12.77,3.7,30.91-3.85,67.54-19.72,95.59-1.81,3.2-3.64,6.41-5.48,9.64-10.25,17.98-20.86,36.57-29,55.47-2.91,6.76-5.52,13.87-8.03,20.73-6.09,16.61-12.39,33.79-23.63,47.95-8.97,11.3-21.87,20.24-34.35,28.89-18.12,12.56-36.85,25.54-44.63,46.2-6.93,18.4.4,36.63,7.49,54.27,4.82,11.98,9.73,24.21,10.14,36.54h.6c-.41-12.43-5.35-24.72-10.19-36.76-7.05-17.53-14.33-35.65-7.49-53.84Z"></path>
          <path class="cls-4" d="M232.13,329.8c-.49-6.62,0-13.31.48-19.77.4-5.41.81-11.01.65-16.56-.22-7.49-1.55-15.72-2.95-24.42-3.66-22.65-7.8-48.32,8.8-64.74,4.62-4.57,10.62-8.78,16.42-12.85,6.86-4.82,13.96-9.8,19.17-15.58,7.12-7.91,13.08-16.72,18.84-25.25,16.68-24.69,32.44-48.02,73.92-48.02h.26c25.71.06,46.77,26.33,52.28,51.69.62,2.86.52,8.07.4,14.11-.24,12.46-.51,26.58,5.11,29.1,5.56,2.5,8.27.74,19.69-6.69,4.62-3.01,10.95-7.12,19.53-12.27,20.65-12.41,9.37-37.64-.59-59.9-4.34-9.7-8.43-18.85-9.71-26.36-5.59-32.9,8.7-48.25,19.14-59.46,6.07-6.52,10.86-11.66,8.94-17.91-2.48-8.08-8.04-9.75-16.46-12.28-9.23-2.77-21.87-6.57-38.84-20.35-7.77-6.31-14.53-12.67-21.07-18.81-1.98-1.86-3.93-3.69-5.88-5.5h-.87c2.11,1.95,4.22,3.93,6.35,5.93,6.55,6.15,13.32,12.51,21.11,18.84,17.05,13.86,29.76,17.67,39.04,20.46,8.53,2.56,13.68,4.11,16.07,11.88,1.81,5.92-2.64,10.71-8.81,17.33-10.52,11.3-24.93,26.77-19.29,59.96,1.29,7.58,5.4,16.77,9.75,26.5,9.85,22.04,21.02,47.01.82,59.15-8.58,5.15-14.92,9.27-19.54,12.28-11.47,7.46-13.86,9.01-19.12,6.64-5.26-2.37-4.98-16.89-4.76-28.55.12-6.08.22-11.32-.42-14.25-2.76-12.68-9.37-25.47-18.14-35.08-7.09-7.77-18.87-17.04-34.72-17.08h-.26c-41.79,0-57.64,23.45-74.41,48.28-5.75,8.51-11.69,17.31-18.79,25.18-5.17,5.73-12.23,10.69-19.07,15.49-5.82,4.09-11.84,8.31-16.5,12.92-16.82,16.64-12.65,42.47-8.97,65.26,1.4,8.69,2.73,16.89,2.94,24.35.16,5.51-.25,11.1-.65,16.49-.48,6.49-.98,13.2-.48,19.86.7,9.46,2.78,18.82,4.8,27.88.61,2.75,1.22,5.52,1.81,8.31h.61c-.59-2.84-1.21-5.65-1.83-8.44-2.01-9.04-4.09-18.38-4.79-27.8Z"></path>
          <path class="cls-4" d="M393.69,258.26c-1.71-.68-4.29.31-6.92,2.64-4.98,4.43-6.15,13.54-4.73,17.63.54,1.56,1.31,1.93,1.87,1.96.03,0,.06,0,.09,0,1.19,0,2.49-1.42,3.86-4.22,1.03-2.11,2.29-4.03,3.51-5.89,2.29-3.5,4.27-6.52,3.98-9.61-.11-1.23-.7-2.12-1.66-2.5ZM390.87,270.04c-1.23,1.88-2.5,3.82-3.55,5.96-1.68,3.46-2.86,3.92-3.38,3.89-.71-.04-1.15-1-1.34-1.56-1.21-3.49-.39-12.58,4.56-16.99,1.95-1.73,3.9-2.7,5.35-2.7.35,0,.66.06.95.17.75.3,1.19.99,1.29,2,.27,2.89-1.66,5.83-3.89,9.23Z"></path>
          <path class="cls-4" d="M221.69,340.12c-.57-4.69-.87-9.32-1.15-13.81-.32-4.95-.64-10.06-1.34-15.26-.06-.47-.13-.99-.19-1.53-.6-5.02-1.49-12.6-8-12.6h-.04c-2.41.01-4.29.9-5.58,2.63-4.57,6.15-.35,20.99.15,22.66,1.14,3.84,2.39,7.81,3.6,11.64,3.35,10.62,6.74,21.39,8.73,32.17h.61c-1.99-10.84-5.41-21.67-8.77-32.35-1.21-3.83-2.46-7.79-3.6-11.63-.49-1.64-4.64-16.22-.24-22.14,1.17-1.58,2.89-2.38,5.11-2.39h.03c5.97,0,6.8,6.98,7.41,12.07.06.54.13,1.06.19,1.54.7,5.17,1.02,10.28,1.34,15.22.29,4.49.58,9.13,1.16,13.84.69,5.66,2.14,11.27,3.55,16.7.77,2.99,1.56,6.07,2.23,9.14h.61c-.67-3.13-1.48-6.25-2.26-9.29-1.4-5.41-2.85-11-3.53-16.62Z"></path>
          <path class="cls-4" d="M240.93,340.37c-1.44-9.44-.63-19.2.16-28.64.63-7.57,1.28-15.4.78-23.04-.45-6.87-1.86-14.37-3.35-22.31-2.52-13.39-5.12-27.25-3.17-39.03,2.31-13.92,12.82-21.05,24.99-29.3,7.94-5.38,16.15-10.95,22.96-19.03,4.9-5.81,9.43-12.19,14.22-18.94,16.09-22.67,32.73-46.11,63.39-46.38,19.23-.15,33.94,8.04,42.61,23.73,14.57,26.38,9.34,67.51-4.68,89.37-1.75,2.72-3.51,5.42-5.28,8.13-6.23,9.52-12.67,19.37-17.83,29.7-3.06,6.13-3.05,20.25,2.75,26.06,2.86,2.87,6.76,3.2,11.27.96,4.27-2.12,11.95-20.92,18.74-37.51,3.97-9.7,7.72-18.87,9.94-22.5,9.51-15.53,21.56-28.52,34.85-37.58,3.42-2.33,7-4.28,10.47-6.16,9.88-5.37,19.2-10.45,22.64-23.17,3.63-13.44-2.22-26.47-8.41-40.28-7.45-16.6-15.89-35.42-9.47-58.76,7.77-28.24,29.14-45.79,51.06-60.55.35-.23,1.53-.89,3.16-1.8,10.04-5.6,36.7-20.48,38.37-28.96.22-1.13,0-2.12-.66-2.95-1.32-1.66-2.78-2.56-4.48-2.74-4.11-.44-8.85,3.39-14.85,8.24-3.28,2.66-7,5.67-11.05,8.27-15.62,10.03-32.94,14-51.48,11.81-29.06-3.45-43.57-19.76-57.6-35.53-1.04-1.16-2.08-2.33-3.13-3.5h-.8c1.17,1.3,2.33,2.6,3.49,3.9,14.11,15.86,28.7,32.26,57.98,35.73,18.67,2.21,36.13-1.79,51.87-11.9,4.08-2.62,7.81-5.64,11.1-8.31,5.66-4.58,10.55-8.53,14.41-8.12,1.52.17,2.86.99,4.07,2.52.55.69.73,1.5.54,2.46-1.62,8.21-29.06,23.52-38.08,28.56-1.71.95-2.83,1.58-3.2,1.83-22.02,14.82-43.48,32.46-51.3,60.88-6.48,23.55,2.01,42.47,9.5,59.16,6.15,13.7,11.96,26.64,8.38,39.88-3.37,12.47-12.59,17.49-22.35,22.8-3.48,1.89-7.07,3.85-10.52,6.2-13.36,9.1-25.47,22.16-35.02,37.76-2.25,3.67-5.83,12.44-9.98,22.58-6.41,15.67-14.39,35.18-18.45,37.2-4.33,2.15-7.89,1.86-10.59-.85-5.53-5.55-5.56-19.53-2.64-25.37,5.14-10.3,11.58-20.14,17.8-29.65,1.77-2.7,3.54-5.41,5.28-8.13,14.12-22.01,19.37-63.42,4.7-89.98-8.78-15.9-23.71-24.2-43.13-24.04-30.96.27-47.69,23.84-63.87,46.63-4.79,6.74-9.31,13.11-14.19,18.91-6.76,8.02-14.93,13.56-22.84,18.92-11.78,7.98-22.9,15.52-25.25,29.69-1.97,11.88.64,25.79,3.17,39.23,1.49,7.92,2.89,15.4,3.34,22.24.5,7.6-.15,15.41-.78,22.95-.79,9.48-1.61,19.28-.16,28.78,1.31,8.6,3.91,16.82,6.42,24.78.08.27.17.54.25.8h.62c-.1-.33-.21-.66-.31-.98-2.5-7.93-5.09-16.13-6.4-24.69Z"></path>
          <path class="cls-4" d="M317.94,9.24c-4.22,27.42-13.95,54.77-28.91,81.29-4.39,7.78-9.51,15.81-14.46,23.57-3.17,4.97-6.44,10.1-9.42,15.01-5.31,8.75-9.7,18.42-12.71,27.95-.09.27-.19.58-.31.93-.97,2.85-2.59,7.62.07,9.72.27.22.61.32,1.02.32,1.63,0,4.33-1.74,8.04-5.2,5.59-5.2,10.08-13.17,14.42-20.88,2.19-3.89,4.26-7.57,6.38-10.71,15.67-23.29,35.34-37.24,60.13-42.64,32.23-7.02,59.23,1.65,80.27,25.79,5.68,6.52,10.17,18.65,13.77,28.4.96,2.59,1.86,5.03,2.7,7.13.05.12,5.02,12,9.52,11.47,1.77-.21,3.27-1.17,4.46-2.85,3.07-4.35,3.26-12.38,2.5-15.65-1.83-7.92-6.38-15.52-10.78-22.88-4.79-8.01-9.74-16.28-11.21-25-2.32-13.73-.18-29.96,5.44-41.35,1.08-2.19,2.92-4.65,4.86-7.26,4.37-5.86,9.32-12.51,7.64-18.71-2.59-9.6-16.84-18.3-30.61-26.7-7.8-4.76-15.87-9.68-21.41-14.58-7.68-6.79-11.74-11.04-15.01-14.45-3.22-3.37-5.77-6.03-10.33-9.63-1.99-1.58-4.11-2.99-6.26-4.33h-1.13c2.41,1.47,4.8,3.04,7.02,4.8,4.52,3.58,7.06,6.23,10.26,9.58,3.28,3.42,7.35,7.68,15.05,14.48,5.58,4.93,13.67,9.87,21.49,14.65,13.68,8.35,27.82,16.98,30.35,26.35,1.6,5.93-3.26,12.45-7.55,18.2-1.96,2.63-3.81,5.11-4.91,7.35-5.67,11.5-7.83,27.87-5.49,41.72,1.49,8.83,6.47,17.15,11.29,25.2,4.38,7.32,8.9,14.88,10.71,22.71.73,3.18.56,10.97-2.41,15.18-1.09,1.54-2.45,2.42-4.05,2.61-3.2.38-7.44-7.47-8.9-11.1-.84-2.09-1.74-4.53-2.69-7.12-3.62-9.8-8.13-21.99-13.88-28.59-21.19-24.31-48.39-33.05-80.85-25.98-24.94,5.44-44.73,19.47-60.5,42.89-2.13,3.17-4.21,6.85-6.4,10.75-4.32,7.67-8.78,15.6-14.31,20.74-5.97,5.56-7.78,5.24-8.29,4.84-2.33-1.84-.79-6.36.13-9.06.12-.35.23-.66.31-.94,3-9.49,7.37-19.11,12.66-27.82,2.97-4.91,6.25-10.04,9.41-15,4.96-7.77,10.08-15.8,14.48-23.6,14.99-26.59,24.74-54.01,28.98-81.5,2.58-16.71,1.68-34.91-2.51-51.35h-.61c4.2,16.41,5.1,34.57,2.53,51.26Z"></path>
          <path class="cls-4" d="M326.7-7.79l.11,2.86c.53,13.21-6.22,48.91-13.23,64.72-1.89,4.28-4.26,8.99-6.55,13.55-5.72,11.4-10.67,21.25-8.01,23.26.57.43,1.34.62,2.26.62,3.93,0,10.59-3.45,15.66-6.32,14.52-8.19,26.22-12.08,39.15-13,13.26-.95,25.13,1.11,35.28,6.11,3.53,1.74,22.33,10.28,26.58,8.93,8.38-2.66,8.29-13.27,8.21-21.8-.02-2.73-.04-5.3.22-7.28.52-3.86,1.69-7.69,3.49-11.39.87-1.79,1.93-3.59,3.05-5.48,4.23-7.19,9.03-15.33,2.38-23.57-5.85-7.24-15.97-13.1-23.36-17.37-2.94-1.7-5.47-3.17-7-4.31-7.01-5.24-13.06-11.48-18.91-17.52-4.79-4.94-9.31-9.61-13.92-13.24-4.34-3.42-9.21-6.2-13.92-8.88-2.32-1.32-4.68-2.67-6.99-4.1h-1.11c2.58,1.63,5.22,3.14,7.81,4.62,4.69,2.68,9.54,5.44,13.84,8.83,4.58,3.61,9.09,8.26,13.86,13.19,5.87,6.06,11.93,12.32,18.98,17.58,1.56,1.16,4.11,2.64,7.06,4.35,7.35,4.25,17.42,10.08,23.2,17.23,6.4,7.92,1.91,15.53-2.43,22.9-1.12,1.91-2.19,3.71-3.07,5.52-1.83,3.75-3.02,7.64-3.55,11.57-.27,2.02-.25,4.62-.23,7.37.07,8.33.16,18.7-7.8,21.22-3.71,1.18-20.7-6.21-26.14-8.9-10.25-5.05-22.22-7.13-35.58-6.17-13.02.93-24.8,4.84-39.4,13.08-3.52,1.99-14.24,8.04-17.27,5.74-2.26-1.71,3.05-12.29,8.19-22.52,2.29-4.57,4.66-9.29,6.57-13.58,7.03-15.87,13.81-51.72,13.28-64.99l-.11-2.86c-.33-8.51-.66-17.31-2.32-25.57-.35-1.72-1.27-4.88-2.39-8.63h-.62c1.14,3.81,2.09,7.02,2.43,8.75,1.65,8.21,1.98,16.99,2.31,25.47Z"></path>
          <path class="cls-4" d="M324.8,55.72c-1.71,4.95-1.56,13.66,3.16,17.11,3.72,2.72,8.96,1.88,13.17,1.21l.64-.1c2.52-.39,5.11-.87,7.61-1.34,6.37-1.18,12.96-2.4,19.41-2.44,8.34-.04,15.48,1.33,21.74,4.25,1.25.58,2.53,1.25,3.89,1.95,4.52,2.34,9.52,4.94,14.61,4.94,1.31,0,2.62-.17,3.93-.56,4.89-1.46,5.23-5.55,5.74-11.74.59-7.07,1.39-16.76,8.58-29.67,4.73-8.5-7.53-17.49-15.64-23.44-1.3-.96-2.53-1.86-3.56-2.66,0,0,0,0,0,0-3.2-2.34-6.36-4.11-9.41-5.82-4.26-2.39-8.28-4.64-12.28-8.26-3.26-2.94-6.09-6.31-8.83-9.57-2.18-2.59-4.42-5.27-6.88-7.72-3.71-3.72-8.35-7.15-14.17-10.49-1.68-.97-3.37-2-5-3-2.86-1.75-5.81-3.56-8.85-5.08-.56-.28-1.46-1.03-2.42-1.82-2.22-1.84-4.74-3.92-6.32-3.37-4,1.39-2.42,9.06-1.26,14.66.35,1.67.64,3.12.7,4,.76,12.93,1.12,27.33,1.12,44.03,0,9.86-3.1,17.82-6.39,26.25-1.09,2.79-2.21,5.68-3.26,8.71ZM335.04,20.76c0-16.71-.37-31.13-1.12-44.07-.05-.92-.36-2.38-.71-4.08-1.05-5.08-2.64-12.76.88-13.98,1.27-.44,3.86,1.7,5.75,3.27,1.03.85,1.91,1.58,2.53,1.89,3.01,1.51,5.96,3.32,8.8,5.06,1.64,1,3.33,2.04,5.01,3.01,5.77,3.32,10.37,6.72,14.04,10.4,2.44,2.44,4.68,5.11,6.84,7.69,2.75,3.28,5.6,6.67,8.88,9.63,4.05,3.66,8.1,5.93,12.39,8.33,3.04,1.7,6.18,3.47,9.35,5.78,1.03.81,2.26,1.71,3.57,2.67,7.94,5.83,19.95,14.64,15.48,22.67-7.25,13.03-8.06,22.79-8.66,29.91-.51,6.16-.82,9.88-5.32,11.22-6.17,1.84-12.5-1.44-18.09-4.33-1.36-.71-2.65-1.37-3.91-1.96-6.22-2.9-13.26-4.31-21.5-4.31-.16,0-.33,0-.49,0-6.5.04-13.11,1.27-19.51,2.45-2.5.46-5.08.94-7.59,1.33l-.64.1c-4.11.65-9.21,1.47-12.73-1.11-4.43-3.24-4.55-11.77-2.95-16.43,1.04-3.02,2.16-5.91,3.25-8.69,3.31-8.48,6.43-16.49,6.43-26.46Z"></path>
          <path class="cls-4" d="M200.24,332.39c-4.03-10.76-9.55-25.49-7-34.41,1.62-5.66,6.71-8.62,12.09-11.76,5.38-3.13,10.95-6.38,13.38-12.58,3.57-9.11,2.59-16.23,1.55-23.76-1.34-9.7-2.72-19.73,4.59-35.79,5.48-12.04,17.5-21.8,29.12-31.24,5.54-4.5,10.78-8.75,15.06-13.07,7.82-7.89,13.4-17.57,18.8-26.93,6.15-10.67,12.51-21.7,22.2-30.05,15.78-13.59,38.51-19.81,60.82-16.65,20.26,2.87,37.04,13.07,47.25,28.7,10.77,16.49,12.33,31.85,13.37,42.02.85,8.4,1.36,13.46,6.36,13.06,3.64-.3,20.67-8.56,22.96-10.2,12.39-8.86-1.62-39.74-10.9-60.17-3.13-6.89-5.83-12.84-6.8-16.35-3.44-12.42-1.52-27.64,4.88-38.77,1.27-2.21,2.89-4.57,4.61-7.07,6.36-9.26,13.57-19.76,8.75-30.37-2.98-6.55-15.42-12.86-26.4-18.42-5.17-2.62-10.05-5.09-13.09-7.21-7.45-5.19-14.02-11.53-20.38-17.65-4.41-4.25-8.97-8.65-13.81-12.65-1.28-1.05-2.58-2.08-3.91-3.09h-.98c1.53,1.15,3.04,2.33,4.5,3.55,4.82,3.98,9.37,8.37,13.77,12.62,6.37,6.14,12.96,12.5,20.45,17.71,3.07,2.14,7.97,4.62,13.16,7.25,10.89,5.52,23.23,11.77,26.12,18.14,4.68,10.3-2.43,20.65-8.7,29.79-1.72,2.51-3.35,4.87-4.63,7.11-6.48,11.26-8.41,26.65-4.94,39.22.98,3.55,3.69,9.52,6.83,16.43,9.19,20.25,23.08,50.86,11.09,59.44-2.43,1.74-19.34,9.82-22.66,10.09-4.42.38-4.9-4.49-5.72-12.52-1.04-10.22-2.61-25.67-13.46-42.28-10.3-15.78-27.23-26.07-47.67-28.96-22.48-3.19-45.39,3.09-61.29,16.78-9.77,8.41-16.15,19.49-22.32,30.2-5.38,9.33-10.94,18.98-18.71,26.81-4.26,4.29-9.48,8.54-15.01,13.03-11.68,9.49-23.75,19.3-29.29,31.46-7.38,16.21-5.92,26.79-4.64,36.11,1.03,7.46,2,14.5-1.51,23.47-2.36,6.01-7.83,9.2-13.13,12.28-5.49,3.2-10.68,6.22-12.37,12.11-2.6,9.11,2.96,23.95,7.02,34.78.85,2.28,1.66,4.43,2.26,6.2,3.17,9.35,5.01,18.44,5.57,27.25h.6c-.55-8.87-2.41-18.03-5.6-27.44-.6-1.78-1.41-3.93-2.26-6.21Z"></path>
          <path class="cls-4" d="M251.25,341.25c-1.75-12.61-1.86-25.67-1.95-38.3-.07-8.88-.14-18.07-.78-27.02-.37-5.15-1.76-10.92-3.23-17.02-2.54-10.53-5.17-21.41-2.4-29.4,2.81-8.13,10.7-13.62,19.06-19.42,4.41-3.07,8.98-6.24,12.77-9.86,9.43-9.01,17.24-19.75,24.79-30.14,8.31-11.43,16.9-23.25,27.61-32.64,9.81-8.6,17.89-13.28,24.72-14.3,11.93-1.8,24.47,1.47,34.38,8.95,9.75,7.36,15.97,18.01,17.51,29.99,3.99,30.9-8.8,51.95-21.17,72.29-8.37,13.76-16.27,26.76-18.93,42.29-1.36,7.96,2.35,17.87,9.24,24.65,6.05,5.95,13.34,8.49,20.52,7.14,10.35-1.94,12.21-16.33,13.58-26.84.37-2.85.72-5.54,1.19-7.63,4.62-20.67,18.21-42.53,37.29-59.98,5.08-4.65,10.96-8.73,17.19-13.04,14.84-10.3,30.19-20.95,33.59-39.57,3.2-17.51-2.84-31.97-8.68-45.95-7.41-17.73-14.41-34.49-4.36-57.1,10.5-23.65,28.77-33.36,46.42-42.74,12.27-6.52,24.97-13.27,35.08-24.62,9.67-10.85,14.22-21.46,17.85-32.98h-.62c-3.65,11.61-8.07,21.79-17.68,32.59-10.05,11.28-22.69,18-34.92,24.49-17.75,9.43-36.1,19.18-46.69,43.02-10.15,22.84-2.77,40.5,4.36,57.57,5.81,13.9,11.81,28.28,8.64,45.62-3.36,18.38-18.61,28.96-33.35,39.19-5.97,4.14-12.14,8.42-17.25,13.1-19.17,17.53-32.83,39.5-37.47,60.29-.47,2.12-.82,4.82-1.19,7.68-1.41,10.9-3.17,24.46-13.1,26.33-6.99,1.32-14.08-1.17-19.99-6.98-6.76-6.65-10.41-16.35-9.07-24.13,2.64-15.42,10.51-28.37,18.85-42.08,12.42-20.44,25.27-41.57,21.25-72.68-1.57-12.14-7.87-22.93-17.75-30.39-10.04-7.58-22.73-10.88-34.83-9.06-6.94,1.04-15.12,5.77-25.02,14.44-10.76,9.43-19.37,21.28-27.7,32.74-7.53,10.37-15.32,21.09-24.72,30.06-3.75,3.59-8.3,6.75-12.7,9.8-8.44,5.86-16.4,11.4-19.28,19.72-2.82,8.16-.18,19.13,2.38,29.74,1.47,6.08,2.85,11.82,3.22,16.92.64,8.93.71,18.11.78,26.98.1,12.65.2,25.73,1.96,38.38,1.13,8.12,2.74,15.96,4.29,23.54.08.39.16.78.24,1.16h.61c-.09-.43-.17-.85-.26-1.28-1.55-7.58-3.16-15.41-4.29-23.51Z"></path>
          <path class="cls-4" d="M344.45,60.39c5.93,3.85,13.62,2.79,20.42,1.86,1.66-.23,3.22-.44,4.74-.59,8.99-.87,16.94.79,24.27,5.09,2.63,1.54,5.91,3.46,8.88,3.46,1.47,0,2.86-.47,4.06-1.7,2.53-2.59,2.97-6.07,3.36-9.15.15-1.18.29-2.3.54-3.31.56-2.27,1.45-4.47,2.32-6.6,1.42-3.48,2.89-7.07,2.98-11.16.2-9.38-7.23-13.55-14.42-17.58-1.7-.96-3.46-1.94-5.12-3.01-6.75-4.02-13.13-7.81-18.43-13.51-1.85-1.99-3.51-4.19-5.11-6.32-2.29-3.04-4.66-6.18-7.62-8.77-2.93-2.56-10.38-8.32-16.42-6.5-5.13,1.54-5.86,6.49-5.88,11.61-.02,4.45.3,9.27.61,13.94.31,4.71.64,9.59.61,14.12-.02,5.23-1.21,10.27-2.36,15.15-.72,3.08-1.47,6.27-1.93,9.51-.83,5.79-.38,10.29,4.51,13.46ZM340.53,47.01c.46-3.21,1.2-6.38,1.93-9.45,1.15-4.91,2.35-9.99,2.37-15.28.02-4.55-.3-9.44-.62-14.16-.31-4.65-.63-9.47-.61-13.9.02-4.55.46-9.54,5.46-11.05,5.75-1.73,13.01,3.88,15.86,6.37,2.91,2.55,5.26,5.67,7.53,8.68,1.61,2.14,3.29,4.36,5.15,6.37,5.35,5.76,11.76,9.58,18.6,13.64,1.61,1.04,3.38,2.03,5.1,2.99,7.04,3.95,14.31,8.03,14.12,17.05-.09,3.98-1.53,7.52-2.93,10.95-.88,2.15-1.78,4.37-2.35,6.68-.26,1.04-.4,2.17-.55,3.37-.38,2.98-.8,6.36-3.19,8.81-3.28,3.37-8.23.47-12.21-1.86-6.17-3.61-12.77-5.39-20.04-5.39-1.5,0-3.03.08-4.59.23-1.53.15-3.1.36-4.76.59-6.69.92-14.27,1.96-20.01-1.77-4.62-3-5.04-7.32-4.24-12.88Z"></path>
          <path class="cls-4" d="M25.06,30.34c-8.37,13.76-16.27,26.76-18.93,42.29-1.36,7.96,2.35,17.87,9.24,24.65,6.05,5.95,13.34,8.49,20.51,7.14,10.35-1.94,12.21-16.33,13.58-26.84.37-2.85.72-5.54,1.19-7.63,4.62-20.67,18.21-42.53,37.29-59.98,5.08-4.65,10.96-8.73,17.19-13.05,14.67-10.18,29.83-20.71,33.46-38.94h-.61c-3.64,17.93-18.66,28.36-33.2,38.45-5.97,4.14-12.14,8.42-17.25,13.1-19.17,17.53-32.83,39.5-37.47,60.29-.47,2.12-.82,4.82-1.19,7.68-1.41,10.9-3.17,24.46-13.1,26.33-6.98,1.31-14.08-1.16-19.99-6.98-6.76-6.65-10.41-16.35-9.07-24.13,2.64-15.42,10.51-28.37,18.85-42.08,12.42-20.43,25.27-41.56,21.26-72.66h-.6s0,.04,0,.06c3.99,30.9-8.8,51.95-21.17,72.29Z"></path>
          <path class="cls-4" d="M28.01,6.4c-3.63,8.39-8.73,16.73-13.66,24.79C6.27,44.4-1.35,56.88-3.29,69.79c-2.17,14.46,3.58,27.41,17.58,39.57,8.79,7.64,16.78,10.7,24.41,9.36,13.16-2.31,15.43-16.33,17.09-26.57.15-.94.3-1.86.45-2.73,3.83-22.15,10.09-47.17,27.4-64.78,7.75-7.89,17.29-13.82,26.51-19.56,18.37-11.43,35.72-22.24,39.89-47.1h-.6c-4.16,24.52-21.38,35.25-39.6,46.59-9.25,5.76-18.82,11.71-26.62,19.65-17.43,17.72-23.71,42.85-27.56,65.1-.15.88-.3,1.79-.45,2.74-1.63,10.06-3.86,23.84-16.61,26.08-7.45,1.31-15.27-1.71-23.92-9.23-30.79-26.75-15.75-51.36.17-77.41,4.94-8.08,10.05-16.43,13.7-24.86,6.26-14.45,9.35-25.44,9.45-33.6.07-5.12-.92-10.23-2.78-15.06h-.63c1.89,4.82,2.89,9.93,2.82,15.05-.11,8.08-3.18,18.99-9.41,33.37Z"></path>
          <path class="cls-4" d="M36.21,54.23c-1.71-.67-4.29.31-6.91,2.64-4.98,4.43-6.15,13.54-4.73,17.63.54,1.56,1.31,1.93,1.87,1.96.03,0,.06,0,.09,0,1.2,0,2.49-1.42,3.86-4.22,1.03-2.11,2.29-4.03,3.51-5.89,2.29-3.5,4.27-6.52,3.98-9.62-.11-1.23-.7-2.12-1.66-2.5ZM33.39,66.02c-1.23,1.88-2.5,3.82-3.54,5.96-1.68,3.46-2.86,3.9-3.38,3.89-.71-.04-1.15-1-1.34-1.56-1.21-3.49-.39-12.58,4.56-16.99,1.95-1.73,3.9-2.7,5.35-2.7.35,0,.66.06.95.17.75.3,1.19.99,1.29,2,.27,2.89-1.66,5.83-3.89,9.23Z"></path>
          <path class="cls-4" d="M41.37,22.78c-1.75,2.72-3.51,5.42-5.28,8.13-6.23,9.52-12.67,19.37-17.83,29.7-3.06,6.13-3.05,20.24,2.75,26.06,2.86,2.87,6.76,3.2,11.28.96,4.26-2.12,11.95-20.92,18.73-37.5,3.97-9.7,7.72-18.87,9.94-22.5C70.47,12.1,82.52-.9,95.81-9.96c3.42-2.33,7-4.28,10.47-6.16,9.88-5.37,19.2-10.45,22.64-23.17.25-.91.45-1.82.61-2.73h-.6c-.16.86-.35,1.72-.58,2.58-3.37,12.47-12.59,17.49-22.35,22.8-3.48,1.89-7.07,3.85-10.52,6.19-13.36,9.1-25.47,22.16-35.02,37.76-2.25,3.67-5.83,12.44-9.98,22.59-6.41,15.67-14.39,35.18-18.45,37.2-4.33,2.15-7.89,1.86-10.59-.85-5.53-5.55-5.56-19.53-2.64-25.37,5.14-10.3,11.58-20.14,17.8-29.65,1.77-2.7,3.54-5.41,5.28-8.13,10.19-15.89,15.76-41.89,12.55-65.12h-.59c3.22,23.1-2.31,48.99-12.46,64.8Z"></path>
          <path class="cls-4" d="M182.28,70.33c-3.41-1.59-9.2,2.64-13.86,6.04-1.98,1.44-3.69,2.69-4.79,3.17,0,0,0,0-.01,0-3.73,1.84-7.13,2.85-10.42,3.82-6.26,1.86-11.66,3.46-16.76,10.17-4.09,5.39-4.83,10.58-2.02,14.24,2.04,2.66,5.6,4.05,9.72,4.05,2.61,0,5.45-.56,8.27-1.71,9.13-3.72,14.71-12.22,20.1-20.43,1.79-2.73,3.48-5.31,5.31-7.73l.16-.2c3.88-5.11,5.62-8.59,5.19-10.34-.13-.51-.43-.88-.89-1.09ZM177.51,81.39l-.16.21c-1.84,2.44-3.61,5.15-5.33,7.76-5.34,8.14-10.87,16.55-19.83,20.2-7.02,2.86-14.14,1.98-17.3-2.15-2.63-3.43-1.9-8.36,2.02-13.52,4.98-6.56,10.29-8.13,16.45-9.96,3.31-.98,6.73-1.99,10.5-3.86,1.17-.51,2.9-1.77,4.9-3.23,4.29-3.13,10.17-7.42,13.26-5.98.3.14.49.37.57.7.27,1.08-.4,3.66-5.09,9.83Z"></path>
          <path class="cls-4" d="M153.15,8.93c-5.09,4.07-10.57,8.11-16.37,12.4-21.49,15.87-45.84,33.87-55.58,57.96-8.32,20.58-4.52,49.49,9.02,68.75,9.78,13.91,23.59,21.48,39.05,21.48.62,0,1.25-.01,1.87-.04,31.83-1.25,59.91-29.67,77.86-53.29,20.84-27.43,48.89-68.76,51.77-110.82,1.16-16.88-1.77-31.75-4.97-47.39h-.61c3.2,15.64,6.14,30.51,4.99,47.35-2.87,41.89-30.86,83.13-51.65,110.5-17.87,23.52-45.81,51.82-77.41,53.06-16,.65-30.36-6.9-40.42-21.19-13.44-19.1-17.2-47.78-8.96-68.18,9.68-23.94,33.96-41.88,55.38-57.71,5.8-4.29,11.28-8.34,16.38-12.41,11.43-9.13,20.33-22.79,24.4-37.47,1.25-4.49,1.6-9.15,1.33-13.94h-.6c.27,4.74-.07,9.34-1.3,13.78-4.04,14.56-12.86,28.11-24.2,37.17Z"></path>
          <path class="cls-4" d="M137.9,36.74c-19.87,14-40.43,28.48-50.58,52.54-5.74,13.61-3.16,29.32,7.09,43.13,11.98,16.14,31.55,25.77,48.71,23.96,25.81-2.73,45.02-26.39,60.46-45.4.83-1.02,1.65-2.04,2.46-3.03,30.62-37.53,46.9-75.61,48.4-113.18.52-13.15-3.14-25.17-6.81-36.78h-.62c3.67,11.62,7.36,23.65,6.84,36.76-1.49,37.44-17.73,75.4-48.26,112.83-.81,1-1.63,2.01-2.46,3.03-15.37,18.93-34.5,42.48-60.06,45.18-16.96,1.79-36.31-7.74-48.17-23.72-10.11-13.63-12.67-29.14-7.01-42.54,10.09-23.91,30.57-38.33,50.37-52.29,20.77-14.63,42.25-29.76,52.1-55.88,3.35-8.87,4.9-16.51,5.24-23.36h-.6c-.34,6.79-1.88,14.37-5.19,23.15-9.79,25.95-31.19,41.03-51.89,55.61Z"></path>
          <path class="cls-4" d="M163.9,54.44c-3.08,1.92-6.27,3.77-9.65,5.72-11.64,6.72-23.68,13.67-31.28,24.16-6.6,9.1-11.02,24.45-6.21,34.97,2.72,5.94,8.09,9.42,15.54,10.06,0,0,.02,0,.03,0h0c31.45-.97,41.51-20.93,53.15-44.05,1.81-3.6,3.69-7.32,5.69-11.07,4.07-7.63,9.05-15.35,13.87-22.81,10.67-16.53,21.71-33.62,25.08-52.58,2.47-13.89.17-27.28-2.4-39.8-.07-.35-.15-.7-.23-1.04h-.61c.08.39.17.78.25,1.16,2.56,12.46,4.85,25.79,2.4,39.58-3.35,18.84-14.35,35.89-24.99,52.37-4.82,7.47-9.81,15.2-13.89,22.85-2,3.76-3.88,7.48-5.69,11.09-12.03,23.89-21.53,42.76-52.62,43.73-7.21-.63-12.41-3.98-15.03-9.71-4.71-10.31-.35-25.41,6.15-34.37,7.53-10.38,19.51-17.3,31.1-23.99,3.39-1.96,6.59-3.8,9.67-5.73,17.64-11.03,40-30.18,49.85-50.86,7.21-15.13,7.25-30.63,4.4-46.1h-.61c2.85,15.41,2.82,30.83-4.33,45.85-9.8,20.57-32.06,39.63-49.63,50.61Z"></path>
          <path class="cls-4" d="M147.52,46.17c-14.8,7.87-30.11,16-42.7,30.47-8.41,9.66-12.39,23.35-10.41,35.72,1.71,10.62,7.63,19.43,16.68,24.8,7.49,4.45,14.81,6.35,21.91,6.35,28.92,0,54.03-31.64,70.33-52.17l1.78-2.25c10.66-13.39,20.25-31.54,27.02-51.11,6.98-20.15,10.44-40.53,9.76-57.37-.31-7.66-1.61-15.23-3.16-22.64h-.61c1.55,7.43,2.86,15.01,3.17,22.67,1.38,34.19-14.03,79.64-36.66,108.08l-1.78,2.25c-20.18,25.42-53.95,67.97-91.47,45.68-8.9-5.29-14.72-13.95-16.4-24.39-1.96-12.2,1.97-25.7,10.27-35.24,12.51-14.38,27.77-22.49,42.53-30.33,22.43-11.92,43.62-23.18,55.38-54.56,4.04-10.78,5.67-22.21,4.92-34.16h-.6c.75,11.89-.87,23.24-4.89,33.95-11.68,31.16-32.77,42.37-55.1,54.24Z"></path>
          <path class="cls-4" d="M114.34,22.68c-13.44,9.52-27.33,19.36-37.16,31.8-15.4,19.51-21.28,47.12-15.33,72.06,5.17,21.67,18.33,38.38,37.06,47.06,10.89,5.05,21.84,7.57,32.77,7.57,9.26,0,18.5-1.81,27.67-5.44,42.29-16.74,76.32-69.78,94.07-113.83,23.21-57.61,19.45-71.95,12.62-97.96-.5-1.92-1.02-3.9-1.54-5.95h-.61c.54,2.1,1.07,4.13,1.58,6.1,6.79,25.9,10.54,40.16-12.6,97.59-17.7,43.94-51.62,96.83-93.73,113.5-19.83,7.85-40,7.14-59.97-2.11-18.56-8.6-31.6-25.17-36.73-46.66-5.91-24.77-.08-52.18,15.21-71.56,9.77-12.37,23.63-22.19,37.03-31.69,16.96-12.01,34.5-24.44,44.28-42.28,4.2-7.66,5.64-15.3,5.39-22.9h-.6c.25,7.51-1.17,15.06-5.31,22.61-9.72,17.73-27.2,30.11-44.1,42.08Z"></path>
        </g>
      </g>
      <path class="cls-2" d="M13.93,300.48c14.95,0,29.91,0,44.86,0,13.58,0,28.02-.91,41.22,2.83,7.76,2.2,15.08,5.83,21.76,10.33,6.44,4.34,11.37,10.41,19.16,12.29,9.14,2.2,18.61-2.02,26.38-7.31,7.77-5.29,14.87-11.83,23.63-15.25,24.59-9.58,52.99,8.29,78.24.6,9.52-2.9,17.82-9.28,27.57-11.28,10.45-2.14,21.16.99,31.6,3.19,31.35,6.6,63.78,4.78,95.77,2.92"></path>
      <path class="cls-2" d="M51.22,300.48c18.98,0,30.63-18.04,46.35-25.85,18.53-9.21,41.05-11.43,60.51-3.86,6.43,2.5,12.89,5.98,19.76,5.4,11.37-.96,19.92-12.72,31.33-12.75,6.02-.02,11.65,3.41,15.65,7.9,8.67,9.73,13.57,35.14,30.1,34.63"></path>
      <path class="cls-2" d="M260.12,305.67c9.77-.78,17.7-7.81,25.2-14.12,7.5-6.31,16.45-12.56,26.18-11.35,6.75.85,12.46,5.17,18.31,8.65,11.75,7,25.27,11.01,38.93,11.55"></path>
      <path class="cls-2" d="M51.22,300.48c25.94,0,54.35-25.53,81.44-24.57,9.97.35,19.49,3.97,29.09,6.67,9.61,2.7,20.01,4.47,29.43,1.2,7.07-2.46,13.54-7.71,21.01-7.26,8.18.5,14.2,7.59,18.99,14.23,4.79,6.64,10.78,13.49,18.85,14.92"></path>
      <path class="cls-2" d="M53.54,300.43c23.32.28,44.71-11.93,67.6-10.54,9.95.6,19.44,4.14,29.02,6.86s19.84,4.63,29.44,1.97c6.24-1.73,11.79-5.29,17.66-8.03,5.87-2.74,12.54-4.71,18.78-2.98,6.23,1.72,10.88,6.75,15.74,11.02,4.86,4.27,8.06,6.41,17.4,6.8"></path>
      <path class="cls-2" d="M54.57,300.44c.13,0,26.59-.51,26.59-.51,12.87,0,25.4-6,38-3.37,8.52,1.78,16.59,5.3,25.07,7.21,11.75,2.66,24.21,2.14,35.7-1.48,8.89-2.8,17.45-7.45,26.77-7.57,14.54-.18,27.43,10.73,41.97,10.79"></path>
      <path class="cls-2" d="M81.32,300.57c4.9-.31,21.79-1.13,32.51.97,12.67,2.47,24.89,7.71,37.8,8.08,14.03.4,27.47-4.98,41.06-8.47,13.59-3.49,16.93-6.31,45.25,3.2"></path>
      <path class="cls-2" d="M86.11,300.2c11.62.16,23.22,2.16,34.22,5.91,8.75,2.98,17.31,7.1,26.53,7.71,17.42,1.15,33.24-10.31,50.57-12.37"></path>
      <path class="cls-2" d="M80.81,300.54c15.07,1.27,32.15,2.66,44.94,10.73,6.54,4.13,12.66,10.02,20.39,10.44,5.25.29,10.24-2.06,14.98-4.35,9.98-4.84,19.96-9.67,29.94-14.51"></path>
      <path class="cls-2" d="M97.67,274.09c4.33-8.89,9.31-18.43,18.3-22.55,5.8-2.65,12.62-2.68,18.15-5.85,6.49-3.72,10.83-11.53,18.23-12.55,5.11-.7,9.97,2.15,14.34,4.9,9.21,5.78,18.41,11.57,27.62,17.35,5.26,3.3,11.65,6.72,17.34,4.23,4.55-1.99,6.8-7.02,10.23-10.61,5.31-5.56,13.5-7.51,21.18-7.14,7.68.37,15.09,2.76,22.52,4.7,11.83,3.09,23.96,5.07,35.59,8.86,11.63,3.79,27.94,15.25,35.85,24.57"></path>
      <path class="cls-2" d="M170.4,239.76c23.08-13.22,46.15-26.44,69.23-39.66,4-2.29,8.15-4.63,12.74-5.12,11.22-1.19,20.13,8.59,28.06,16.62,15.38,15.58,35.92,28.5,56.6,35.69"></path>
      <path class="cls-2" d="M314.85,280.92c6.07,1.75,12.49,2.73,18.45.64s11.16-5.87,16.26-9.61c10.64-7.79,21.29-15.58,31.93-23.37,3.4-2.49,7.12-5.08,11.33-5.04,4.27.04,7.98,2.8,11.29,5.51,7.03,5.75,13.77,11.86,20.18,18.29"></path>
      <path class="cls-2" d="M105.9,259.92c-17.01-.33-35.64-9.58-44.96-23.82-2.19-3.35-4.45-7.3-8.36-8.16-3.57-.79-7.17,1.43-9.53,4.21-2.36,2.79-3.92,6.18-6.23,9.01-4.41,5.38-11.09,8.22-17.18,11.57-6.09,3.35-12.23,7.99-13.88,14.75"></path>
      <path class="cls-2" d="M310.09,259.3c9.48-1.39,17.7-5.15,25.61-10.55,4.84-3.3,10.31-7.51,15.9-5.76,2.69.84,4.89,3,7.68,3.45,5.63.9,9.61-5.23,14.7-7.8,5.57-2.81,10.52,1.26,17.26,5.02"></path>
      <circle class="cls-3" cx="128.88" cy="151.21" r="34.12"></circle>
      <path class="cls-2" d="M256.3,195c-4.78-.3-9.93,3.86-12.65,7.58-.45.61-.73,1.35-.74,2.1-.04,2.86,3.13,3.53,5.6,3.89,6.13.9,12.03,3.24,17.13,6.76,1.94,1.34,2.32,4.03.91,5.92s-2.11,4.58-1.75,7.01c.57,3.86,3.2,7.17,6.36,9.47s6.83,3.76,10.42,5.31c10.02,4.34,19.65,9.6,28.72,15.68"></path>
      <path class="cls-2" d="M2.66,275.4c3.17-3.21,7.8-4.68,12.31-4.8,4.51-.12,8.96.99,13.28,2.31,6.67,2.04,13.17,4.61,19.75,6.94,10.01,3.54,20.26,6.56,30.79,7.91"></path>
      <path class="cls-2" d="M74.3,291.47c-3.46,2.65-8.43.78-11.77-.51-3.35-1.3-6.47-3.17-9.92-4.16-3.45-.99-7.48-.96-10.28,1.28-1.1.88-1.97,2.06-3.2,2.76-2.4,1.36-5.39.47-8.03-.33-9.57-2.91-19.58-4.38-29.59-4.35"></path>
      <path class="cls-2" d="M1,291.64c12.39,1.59,24.78,3.17,37.16,4.76,1.86.24,4.25.2,5-1.52.32-.74.22-1.61.58-2.33.48-.95,1.65-1.37,2.7-1.3s2.04.53,3.02.92c6.78,2.74,18.08,3.94,24.12-.19"></path>
      <path class="cls-2" d="M323.9,283.44c9.2,7.1,22.5,6.35,33.16,1.74,10.66-4.61,19.52-12.46,28.95-19.24,2.71-1.95,5.74-3.9,9.08-3.79s6.72,3.33,5.7,6.51c-.47,1.45-1.69,2.51-2.57,3.75-.89,1.24-1.41,3.05-.44,4.23.51.62,1.32.9,2.09,1.15,5.99,1.97,11.97,3.95,17.96,5.92,6.14,2.02,12.33,4.06,18.75,4.88s13.15.35,18.98-2.46"></path>
      <path class="cls-2" d="M321.13,283.33c9.08,5,18.83,10.16,29.16,9.36,6.99-.54,13.51-3.81,19.27-7.82,5.76-4.01,10.93-8.79,16.61-12.91.89-.65,1.84-1.3,2.94-1.46s2.36.33,2.73,1.37c.43,1.21-.49,2.47-1.47,3.29-.99.82-2.18,1.56-2.57,2.78-.45,1.4.36,2.96,1.56,3.82,1.19.86,2.68,1.18,4.13,1.47,13.69,2.75,27.55,4.64,41.47,5.64"></path>
      <path class="cls-2" d="M335.87,291.15c15.57,7.58,35.2,6.04,49.4-3.89-.54,1.46.35,3.13,1.65,3.98s2.89,1.08,4.43,1.27c18.33,2.25,36.92,2.32,55.27.2"></path>
      <path class="cls-2" d="M152.12,233.18c-5.34.92-8.47,5.83-10.72,10.9-.85,1.91.85,3.98,2.9,3.52.78-.17,1.56-.46,2.27-.8,2.01-.98,3.8-2.4,5.88-3.23,4.13-1.65,8.79-.77,13.15.14.71.15,1.61.55,1.49,1.27-.06.36-.37.61-.67.82l-3.75,2.77c-1.07.79-.61,2.47.72,2.62,12,1.32,27.02,1.75,37,7.55"></path>
      <path class="cls-2" d="M51.72,227.81c-2.13.21-3.87,1.93-5.17,3.71-.47.64-.72,1.46-.55,2.24.62,2.75,5.36,2.35,6.26,4.98l-18.63,15.44c-1.72,1.42-.72,4.21,1.51,4.23l31.48.22c3.71.03,7.13,1.96,9.13,5.09.09.14.2.28.33.41.86.84,2.21.84,3.32,1.31s1.93,2.12.93,2.78c6.55.41,13.11.81,19.66,1.22"></path>
    </g>
  </g>
</svg>